<svg width="160" height="32" viewBox="0 0 160 32" fill="none" xmlns="http://www.w3.org/2000/svg">
<g clip-path="url(#clip0_1440_821)">
<path fill-rule="evenodd" clip-rule="evenodd" d="M40.4552 9.1784L33.407 1.43062L29.11 9.34325L22.0617 1.60205L10.3365 23.1904L17.3848 30.9447L21.6818 23.0321L28.73 30.7733L40.4552 9.1784ZM150.502 16.1745H151.373C152.768 16.1745 153.142 16.88 152.605 18.1131L148.484 26.9357C148.317 27.2705 148.067 27.5565 147.759 27.7666C147.45 27.9767 147.093 28.1038 146.722 28.1357H145.858C144.41 28.1357 144.069 27.384 144.679 26.085L148.74 17.3812C148.968 16.9426 149.334 16.5925 149.781 16.3855C150 16.26 150.244 16.1878 150.495 16.1745H150.502ZM148.537 12.416H156.26C159.764 12.416 160.799 15.5151 159.43 18.4428L158.9 19.5769L155.244 27.3972C154.131 29.7842 151.268 31.736 148.891 31.736H141.141C137.643 31.736 136.602 28.6435 137.971 25.7158L142.157 16.7613C143.27 14.4073 146.133 12.4292 148.517 12.4292L148.537 12.416ZM131.414 12.2182C130.379 14.315 129.449 16.4646 128.473 18.6208C128.82 18.6208 129.128 18.3702 129.645 17.8625C131.67 15.825 133.726 13.8271 134.663 13.3457C135.647 12.8535 136.713 12.5473 137.807 12.4424C139.542 12.2704 141.292 12.4021 142.982 12.8314L133.844 21.3177L135.416 31.7426C135.082 31.7426 134.65 31.7426 134.198 31.7426C131.65 31.7426 129.79 31.4195 128.722 29.4281C127.517 27.1796 127.458 24.1069 127.281 21.2584L126.868 22.1617C125.848 24.5295 124.491 26.7352 122.84 28.7094C120.796 31.0305 118.765 31.7426 115.798 31.7228C115.274 31.7228 114.776 31.7228 114.383 31.6898L123.193 13.9524C123.482 13.3655 123.77 12.7787 124.051 12.1918L131.414 12.2182ZM109.496 12.2182C108.461 14.3216 107.531 16.4712 106.555 18.6208C106.902 18.6208 107.21 18.3768 107.721 17.8691C109.752 15.8316 111.802 13.8337 112.745 13.3523C113.727 12.858 114.791 12.5517 115.883 12.449C117.619 12.2753 119.372 12.4047 121.064 12.8314L111.92 21.3309L113.492 31.7558L112.274 31.7887C109.719 31.7887 107.865 31.4656 106.798 29.4743C105.586 27.2258 105.533 24.1465 105.357 21.2979L104.944 22.2079C103.924 24.5736 102.567 26.7771 100.915 28.749C98.8651 31.07 96.8411 31.7887 93.8737 31.769C93.3432 31.769 92.8453 31.769 92.4588 31.7294L101.269 13.9985C101.557 13.4051 101.846 12.8248 102.127 12.2314L109.496 12.2182ZM99.7822 12.2182C99.2713 13.3062 98.78 14.4007 98.2887 15.5151L92.806 26.54C92.3438 27.2327 91.8361 27.8936 91.2863 28.5182C89.0723 31.0304 86.8845 31.8151 83.6748 31.7822C82.4302 31.7822 81.3363 31.703 81.3035 31.6898L90.6313 12.9105L90.9457 12.2511L99.7822 12.2182ZM70.7443 31.7228L68.373 13.6622C68.1438 14.1238 67.9145 14.5722 67.6787 15.014L64.5149 21.9111C63.4931 24.2761 62.1362 26.4793 60.4864 28.4522C58.4361 30.7799 56.412 31.492 53.4447 31.4722C52.2918 31.4722 51.2765 31.3997 51.2438 31.3865L59.8837 14.0051C62.1567 9.33007 64.469 4.66162 66.7944 -0.00683594H75.7029L77.5501 18.0406L81.6441 9.79163C82.7149 7.43681 84.094 5.23688 85.7447 3.25051C87.8146 0.92288 89.8518 0.210752 92.8191 0.230533C93.9654 0.230533 94.9808 0.303069 95.0135 0.316257L79.0567 31.736L70.7443 31.7228ZM11.9872 0.434941H19.7429H31.062H43.3833L50.8049 9.13224L38.8373 31.9866H31.062H19.7429H7.4216L0 23.2893L11.9676 0.441542L11.9872 0.434941Z" fill="#00488E"/>
<path fill-rule="evenodd" clip-rule="evenodd" d="M97.9866 3.396C98.7105 3.39731 99.4178 3.6146 100.019 4.02041C100.62 4.42623 101.089 5.00235 101.365 5.67598C101.641 6.34962 101.713 7.09053 101.571 7.8051C101.429 8.51968 101.079 9.17584 100.567 9.69068C100.055 10.2055 99.4021 10.5559 98.692 10.6976C97.9819 10.8393 97.246 10.7659 96.5773 10.4867C95.9086 10.2076 95.3371 9.73512 94.935 9.12911C94.5329 8.5231 94.3184 7.81072 94.3184 7.08199C94.3184 6.59738 94.4133 6.11752 94.5977 5.66989C94.7821 5.22225 95.0524 4.81564 95.3932 4.47328C95.7339 4.13092 96.1383 3.85953 96.5833 3.67468C97.0283 3.48983 97.5052 3.39514 97.9866 3.396Z" fill="#E5271E"/>
</g>
<defs>
<clipPath id="clip0_1440_821">
<rect width="160" height="32" fill="white"/>
</clipPath>
</defs>
</svg>
