<svg width="202" height="40" viewBox="0 0 202 40" fill="none" xmlns="http://www.w3.org/2000/svg">
<g clip-path="url(#clip0_775_10353)">
<path fill-rule="evenodd" clip-rule="evenodd" d="M51.0748 11.4713L42.1764 1.78657L36.7513 11.6774L27.8529 2.00085L13.0499 28.9862L21.9482 38.6792L27.3733 28.7884L36.2717 38.4649L51.0748 11.4713ZM190.009 20.2164H191.109C192.87 20.2164 193.341 21.0983 192.663 22.6396L187.462 33.6679C187.25 34.0864 186.935 34.444 186.545 34.7066C186.156 34.9691 185.705 35.128 185.237 35.168H184.145C182.318 35.168 181.888 34.2283 182.657 32.6046L187.784 21.7247C188.072 21.1765 188.535 20.7389 189.099 20.4802C189.375 20.3233 189.683 20.233 190 20.2164H190.009ZM187.528 15.5183H197.278C201.702 15.5183 203.009 19.3922 201.281 23.0518L200.611 24.4694L195.996 34.2448C194.59 37.2286 190.976 39.6683 187.974 39.6683H178.191C173.775 39.6683 172.46 35.8026 174.188 32.143L179.473 20.95C180.879 18.0075 184.493 15.5348 187.503 15.5348L187.528 15.5183ZM165.91 15.271C164.604 17.8921 163.429 20.5791 162.197 23.2743C162.635 23.2743 163.024 22.9611 163.677 22.3264C166.233 19.7795 168.83 17.2821 170.012 16.6805C171.255 16.0651 172.6 15.6824 173.982 15.5512C176.171 15.3363 178.382 15.5009 180.515 16.0375L168.978 26.6454L170.963 39.6765C170.541 39.6765 169.996 39.6765 169.425 39.6765C166.208 39.6765 163.859 39.2726 162.511 36.7835C160.99 33.9728 160.915 30.1319 160.692 26.5712L160.171 27.7004C158.883 30.6602 157.17 33.4173 155.085 35.8851C152.505 38.7864 149.941 39.6765 146.195 39.6518C145.533 39.6518 144.905 39.6518 144.409 39.6106L155.532 17.4387C155.895 16.7052 156.259 15.9716 156.615 15.238L165.91 15.271ZM138.239 15.271C136.933 17.9003 135.758 20.5873 134.526 23.2743C134.964 23.2743 135.353 22.9693 135.998 22.3347C138.562 19.7878 141.15 17.2904 142.341 16.6887C143.58 16.0708 144.923 15.6879 146.302 15.5595C148.494 15.3424 150.707 15.5041 152.844 16.0375L141.299 26.6619L143.284 39.693L141.746 39.7342C138.52 39.7342 136.18 39.3303 134.832 36.8412C133.302 34.0305 133.236 30.1814 133.013 26.6207L132.492 27.7581C131.204 30.7153 129.49 33.4697 127.406 35.9345C124.817 38.8358 122.262 39.7342 118.516 39.7095C117.846 39.7095 117.217 39.7095 116.729 39.66L127.852 17.4964C128.216 16.7546 128.58 16.0293 128.936 15.2875L138.239 15.271ZM125.975 15.271C125.33 16.631 124.71 17.9992 124.089 19.3922L117.168 33.1733C116.584 34.0392 115.943 34.8653 115.249 35.646C112.454 38.7863 109.692 39.7672 105.639 39.726C104.068 39.726 102.687 39.6271 102.646 39.6106L114.422 16.1365L114.819 15.3122L125.975 15.271ZM89.3147 39.6518L86.321 17.0761C86.0315 17.653 85.7421 18.2135 85.4444 18.7658L81.45 27.3872C80.1601 30.3434 78.4469 33.0975 76.364 35.5636C73.7756 38.4731 71.2202 39.3633 67.4739 39.3386C66.0184 39.3386 64.7366 39.2479 64.6952 39.2314L75.6032 17.5047C78.4728 11.6609 81.3921 5.82531 84.3279 -0.0102539H95.575L97.9071 22.549L103.076 12.2378C104.427 9.2943 106.169 6.54439 108.253 4.06143C110.866 1.15189 113.438 0.261731 117.184 0.286458C118.631 0.286458 119.913 0.377127 119.955 0.393612L99.8091 39.6683L89.3147 39.6518ZM15.1339 0.541968H24.9254H39.2157H54.7714L64.1412 11.4136L49.0321 39.9815H39.2157H24.9254H9.36977L0 29.1099L15.1091 0.550218L15.1339 0.541968Z" fill="#00488E"/>
<path fill-rule="evenodd" clip-rule="evenodd" d="M123.709 4.24464C124.623 4.24627 125.516 4.51789 126.275 5.02515C127.034 5.53242 127.626 6.25257 127.974 7.09461C128.323 7.93666 128.413 8.8628 128.234 9.75601C128.055 10.6492 127.614 11.4694 126.967 12.113C126.32 12.7565 125.496 13.1945 124.6 13.3716C123.703 13.5487 122.774 13.457 121.93 13.1081C121.086 12.7591 120.364 12.1685 119.857 11.411C119.349 10.6535 119.078 9.76304 119.078 8.85212C119.078 8.24636 119.198 7.64653 119.431 7.08699C119.664 6.52745 120.005 6.01918 120.435 5.59123C120.865 5.16328 121.376 4.82405 121.938 4.59299C122.499 4.36193 123.101 4.24355 123.709 4.24464Z" fill="#E5271E"/>
</g>
<defs>
<clipPath id="clip0_775_10353">
<rect width="202" height="40" fill="white"/>
</clipPath>
</defs>
</svg>
