<svg width="56" height="18" viewBox="0 0 56 18" fill="none" xmlns="http://www.w3.org/2000/svg">
<path d="M3.11464 0V10.4407H0V0H3.11464Z" fill="#616161"/>
<path d="M17.9666 0V10.4407H14.852V4.67979L12.7385 10.4407H10.1324L8.00298 4.63536V10.4407H4.88835V0H8.65451L11.4672 6.78273L14.2164 0H17.9666Z" fill="#616161"/>
<path d="M22.8542 2.32509V4.02817H26.4297V6.23478H22.8542V8.11558H26.9064V10.4407H19.7396V0H26.9064V2.32509H22.8542Z" fill="#616161"/>
<path d="M32.8791 0C34.055 0 35.0827 0.222142 35.962 0.666426C36.8519 1.10084 37.5352 1.71296 38.0119 2.5028C38.4886 3.29264 38.727 4.19601 38.727 5.21293C38.727 6.21997 38.4833 7.11842 37.996 7.90825C37.5193 8.69809 36.836 9.32009 35.9461 9.77425C35.0668 10.2185 34.0444 10.4407 32.8791 10.4407H28.4455V0H32.8791ZM32.6407 7.87863C33.5518 7.87863 34.2669 7.64662 34.786 7.18259C35.3051 6.71856 35.5647 6.06201 35.5647 5.21293C35.5647 4.35398 35.3051 3.69249 34.786 3.22846C34.2669 2.75456 33.5518 2.51761 32.6407 2.51761H31.5602V7.87863H32.6407Z" fill="#616161"/>
<path d="M43.2456 0V10.4407H40.131V0H43.2456Z" fill="#616161"/>
<path d="M52.1067 8.73758H48.134L47.5301 10.4407H44.2566L48.3406 0H51.9319L56 10.4407H52.7106L52.1067 8.73758ZM51.3281 6.51616L50.1203 3.13961L48.9285 6.51616H51.3281Z" fill="#616161"/>
<path d="M2.21328 17.9996C1.79863 17.9996 1.42706 17.937 1.09856 17.8119C0.770072 17.6867 0.506201 17.5015 0.306952 17.2562C0.113088 17.0109 0.0107702 16.7155 0 16.3701H1.47014C1.49168 16.5653 1.56438 16.7155 1.68824 16.8206C1.81209 16.9208 1.97365 16.9708 2.1729 16.9708C2.37753 16.9708 2.53908 16.9283 2.65756 16.8432C2.77603 16.7531 2.83527 16.6304 2.83527 16.4752C2.83527 16.345 2.7868 16.2374 2.68987 16.1523C2.59832 16.0672 2.48254 15.9971 2.34253 15.942C2.2079 15.887 2.01404 15.8244 1.76093 15.7543C1.39475 15.6492 1.09587 15.544 0.864312 15.4389C0.632752 15.3338 0.433502 15.1786 0.266564 14.9733C0.0996248 14.7681 0.0161554 14.5002 0.0161554 14.1698C0.0161554 13.6792 0.207327 13.2962 0.589671 13.0209C0.972014 12.7405 1.47014 12.6003 2.08404 12.6003C2.70872 12.6003 3.21222 12.7405 3.59457 13.0209C3.97691 13.2962 4.18155 13.6817 4.20847 14.1773H2.7141C2.70333 14.0071 2.63602 13.8744 2.51216 13.7793C2.3883 13.6792 2.22944 13.6291 2.03558 13.6291C1.86864 13.6291 1.73401 13.6717 1.63169 13.7568C1.52937 13.8369 1.47822 13.9545 1.47822 14.1097C1.47822 14.28 1.56438 14.4126 1.7367 14.5077C1.90903 14.6029 2.17828 14.7055 2.54447 14.8156C2.91066 14.9308 3.20684 15.0409 3.43301 15.146C3.66458 15.2512 3.86383 15.4039 4.03076 15.6041C4.1977 15.8044 4.28117 16.0622 4.28117 16.3776C4.28117 16.678 4.1977 16.9508 4.03076 17.1961C3.86921 17.4414 3.63226 17.6367 3.31993 17.7819C3.00759 17.927 2.63871 17.9996 2.21328 17.9996Z" fill="#616161"/>
<path d="M6.51251 16.9558H8.32191V17.9471H5.13122V12.6754H6.51251V16.9558Z" fill="#616161"/>
<path d="M12.7841 12.6754V13.7042H11.2816V17.9471H9.90035V13.7042H8.3979V12.6754H12.7841Z" fill="#616161"/>
<path d="M18.6053 17.9471H17.224L14.9138 14.6955V17.9471H13.5325V12.6754H14.9138L17.224 15.942V12.6754H18.6053V17.9471Z" fill="#616161"/>
<path d="M21.8238 17.9996C21.4091 17.9996 21.0376 17.937 20.7091 17.8119C20.3806 17.6867 20.1167 17.5015 19.9175 17.2562C19.7236 17.0109 19.6213 16.7155 19.6105 16.3701H21.0806C21.1022 16.5653 21.1749 16.7155 21.2987 16.8206C21.4226 16.9208 21.5842 16.9708 21.7834 16.9708C21.988 16.9708 22.1496 16.9283 22.2681 16.8432C22.3865 16.7531 22.4458 16.6304 22.4458 16.4752C22.4458 16.345 22.3973 16.2374 22.3004 16.1523C22.2088 16.0672 22.0931 15.9971 21.953 15.942C21.8184 15.887 21.6245 15.8244 21.3714 15.7543C21.0053 15.6492 20.7064 15.544 20.4748 15.4389C20.2433 15.3338 20.044 15.1786 19.8771 14.9733C19.7101 14.7681 19.6267 14.5002 19.6267 14.1698C19.6267 13.6792 19.8178 13.2962 20.2002 13.0209C20.5825 12.7405 21.0806 12.6003 21.6945 12.6003C22.3192 12.6003 22.8227 12.7405 23.2051 13.0209C23.5874 13.2962 23.7921 13.6817 23.819 14.1773H22.3246C22.3138 14.0071 22.2465 13.8744 22.1227 13.7793C21.9988 13.6792 21.8399 13.6291 21.6461 13.6291C21.4791 13.6291 21.3445 13.6717 21.2422 13.7568C21.1399 13.8369 21.0887 13.9545 21.0887 14.1097C21.0887 14.28 21.1749 14.4126 21.3472 14.5077C21.5195 14.6029 21.7888 14.7055 22.155 14.8156C22.5212 14.9308 22.8173 15.0409 23.0435 15.146C23.2751 15.2512 23.4743 15.4039 23.6413 15.6041C23.8082 15.8044 23.8917 16.0622 23.8917 16.3776C23.8917 16.678 23.8082 16.9508 23.6413 17.1961C23.4797 17.4414 23.2428 17.6367 22.9304 17.7819C22.6181 17.927 22.2492 17.9996 21.8238 17.9996Z" fill="#616161"/>
<path fill-rule="evenodd" clip-rule="evenodd" d="M54.5272 16.6303L55.9974 16.6303L55.9974 15.1087L54.5272 15.1087L54.5272 13.7396L52.8945 13.7396L52.8945 15.1087L51.4258 15.1087L51.4258 16.6303L52.8945 16.6303L52.8945 18L54.5272 18L54.5272 16.6303Z" fill="#ACD58C"/>
</svg>
