<svg width="120" height="24" viewBox="0 0 120 24" fill="none" xmlns="http://www.w3.org/2000/svg">
<g clip-path="url(#clip0_1405_1555)">
<path fill-rule="evenodd" clip-rule="evenodd" d="M30.3414 6.88301L25.0553 1.07217L21.8325 7.00665L16.5463 1.20074L7.75239 17.392L13.0386 23.2077L16.2614 17.2733L21.5475 23.0792L30.3414 6.88301ZM112.876 12.1301H113.53C114.576 12.1301 114.856 12.6592 114.453 13.584L111.363 20.201C111.238 20.4521 111.05 20.6666 110.819 20.8242C110.588 20.9817 110.32 21.077 110.042 21.101H109.393C108.308 21.101 108.052 20.5372 108.509 19.563L111.555 13.0351C111.726 12.7062 112.001 12.4436 112.336 12.2883C112.5 12.1942 112.683 12.14 112.872 12.1301H112.876ZM111.403 9.3112H117.195C119.823 9.3112 120.599 11.6355 119.573 13.8313L119.175 14.6819L116.433 20.5471C115.598 22.3374 113.451 23.8012 111.668 23.8012H105.856C103.233 23.8012 102.451 21.4818 103.478 19.2861L106.618 12.5702C107.453 10.8047 109.6 9.32109 111.388 9.32109L111.403 9.3112ZM98.5606 9.16283C97.7843 10.7355 97.0867 12.3477 96.3547 13.9648C96.6151 13.9648 96.846 13.7769 97.2341 13.3961C98.7521 11.868 100.295 10.3695 100.997 10.0085C101.736 9.63931 102.535 9.40965 103.355 9.33097C104.656 9.20204 105.969 9.30075 107.237 9.62275L100.383 15.9875L101.562 23.8062C101.312 23.8062 100.987 23.8062 100.648 23.8062C98.7374 23.8062 97.3422 23.5638 96.5414 22.0703C95.6374 20.3839 95.5932 18.0794 95.4606 15.943L95.1511 16.6205C94.386 18.3963 93.3682 20.0506 92.1297 21.5313C90.5969 23.272 89.0739 23.8062 86.8484 23.7913C86.4554 23.7913 86.082 23.7913 85.7873 23.7666L92.395 10.4635C92.6112 10.0233 92.8273 9.5832 93.0386 9.14306L98.5606 9.16283ZM82.1223 9.16283C81.3461 10.7404 80.6485 12.3526 79.9165 13.9648C80.1769 13.9648 80.4078 13.7818 80.791 13.401C82.3139 11.8729 83.8516 10.3745 84.5591 10.0134C85.295 9.6427 86.093 9.41296 86.9123 9.33592C88.2144 9.20569 89.529 9.30272 90.7983 9.62275L83.9401 15.9974L85.1191 23.816L84.2054 23.8408C82.2894 23.8408 80.899 23.5984 80.0983 22.1049C79.1894 20.4186 79.1501 18.1091 79.0174 15.9726L78.7079 16.6551C77.9428 18.4294 76.925 20.082 75.6866 21.5609C74.1489 23.3017 72.6308 23.8408 70.4053 23.8259C70.0074 23.8259 69.634 23.8259 69.3441 23.7963L75.9519 10.4981C76.168 10.053 76.3842 9.61782 76.5954 9.17273L82.1223 9.16283ZM74.8366 9.16283C74.4535 9.97882 74.085 10.7998 73.7165 11.6355L69.6045 19.9042C69.2578 20.4238 68.8771 20.9194 68.4648 21.3878C66.8042 23.272 65.1634 23.8605 62.7561 23.8358C61.8227 23.8358 61.0022 23.7765 60.9776 23.7666L67.9735 9.68211L68.2093 9.18757L74.8366 9.16283ZM53.0582 23.7913L51.2798 10.2459C51.1078 10.5921 50.9359 10.9283 50.759 11.2597L48.3861 16.4326C47.6199 18.2062 46.6021 19.8587 45.3648 21.3384C43.8271 23.0841 42.309 23.6182 40.0835 23.6034C39.2189 23.6034 38.4574 23.549 38.4328 23.5391L44.9128 10.503C46.6175 6.99676 48.3518 3.49542 50.0958 -0.00592041H56.7772L58.1626 13.5296L61.2331 7.34293C62.0361 5.57681 63.0705 3.92687 64.3085 2.43709C65.861 0.691366 67.3888 0.15727 69.6143 0.172107C70.4741 0.172107 71.2356 0.226508 71.2601 0.236399L59.2926 23.8012L53.0582 23.7913ZM8.99042 0.325413H14.8072H23.2965H32.5375L38.1037 6.84839L29.128 23.9891H23.2965H14.8072H5.5662L0 17.4662L8.97568 0.330363L8.99042 0.325413Z" fill="#00488E"/>
<path fill-rule="evenodd" clip-rule="evenodd" d="M73.4894 2.54688C74.0324 2.54786 74.5629 2.71083 75.0138 3.01519C75.4648 3.31955 75.816 3.75164 76.0231 4.25687C76.2302 4.76209 76.2839 5.31778 76.1774 5.85371C76.0709 6.38963 75.8089 6.88176 75.4247 7.26788C75.0404 7.65401 74.5511 7.91681 74.0185 8.02308C73.4859 8.12935 72.934 8.07431 72.4325 7.86493C71.9309 7.65555 71.5023 7.30122 71.2008 6.84671C70.8992 6.3922 70.7383 5.85792 70.7383 5.31137C70.7383 4.94792 70.8095 4.58802 70.9478 4.25229C71.0861 3.91657 71.2888 3.61161 71.5444 3.35484C71.7999 3.09807 72.1032 2.89453 72.437 2.75589C72.7707 2.61725 73.1284 2.54623 73.4894 2.54688V2.54688Z" fill="#E5271E"/>
</g>
<defs>
<clipPath id="clip0_1405_1555">
<rect width="120" height="24" fill="white"/>
</clipPath>
</defs>
</svg>
