<svg width="150" height="126" viewBox="0 0 150 126" fill="none" xmlns="http://www.w3.org/2000/svg">
<path d="M59.6446 36.4534C62.2555 35.2834 64.3803 34.978 67.2074 35.5205C69.8839 36.034 70.9898 36.854 73.0625 38.5523C74.7702 39.9516 76.4779 42.517 76.4779 44.1495C76.4779 48.1142 76.4779 52.5453 76.4779 52.5453V74.0013L71.8427 69.8034C71.8427 69.8034 69.8992 71.1056 68.4272 71.6691C66.6386 72.3539 65.4716 72.4741 63.548 72.3688C61.6792 72.2665 60.5993 71.9789 58.9127 71.2027C57.1959 70.4126 56.2479 69.7884 55.0094 68.4041C52.9723 66.1275 52.4138 64.1691 52.3258 61.1744C52.2302 57.921 52.8465 55.7585 55.0094 53.245C57.044 50.8806 58.9292 49.8063 62.0842 49.2803C64.8318 48.8222 69.1591 50.2132 69.1591 50.2132L63.0601 55.3439C63.0601 55.3439 61.8772 54.6443 60.8644 54.6443C59.8517 54.6443 58.0765 57.2819 57.6929 59.0754C57.3094 60.869 57.3416 62.0943 58.1809 63.7398C59.3167 65.9667 60.9866 67.0934 63.548 67.4712C65.4685 67.7545 67.2265 66.0583 68.9151 65.1391C70.6753 64.1809 71.8427 62.3405 71.8427 60.7079C71.8427 55.8104 71.8427 52.7786 71.8427 46.7149C71.8427 45.2463 70.961 43.3375 69.891 42.2838C69.0809 41.4861 68.541 41.0398 67.4514 40.6513C65.9339 40.1101 64.8934 40.3535 63.304 40.6513C61.4624 40.9963 58.9127 42.517 58.9127 42.517L55.4973 39.4852C55.4973 39.4852 57.205 37.5466 59.6446 36.4534Z" fill="#9A9DA0"/>
<path d="M75.0137 39.0184C75.0137 39.0184 77.7088 36.9446 79.7967 36.0747C84.6816 34.0393 92.0909 35.5203 92.0909 35.5203V40.1846C92.0909 40.1846 84.042 39.1572 80.3808 41.1174C78.7309 42.0008 77.4533 42.9832 77.4533 42.9832L75.0137 39.0184Z" fill="#9A9DA0"/>
<path d="M79.4052 49.9724C79.4052 49.9724 82.4918 48.5572 84.5284 48.5806C86.6776 48.6053 88.0177 49.2058 89.8955 50.2057C91.4856 51.0524 92.1793 51.8746 93.3109 53.2375C94.7151 54.9286 95.5414 56.0198 95.9945 58.135C96.4548 60.2839 96.1641 61.6308 95.5066 63.7322C94.9572 65.4883 94.4739 66.4729 93.3109 67.9302C91.7043 69.9434 90.4885 71.1917 87.9438 71.8948C87.1 72.128 84.0742 72.1382 82.0887 71.9024C80.1396 71.6708 77.9414 70.2699 77.9414 70.2699V63.5066C77.9414 63.5066 81.943 66.1818 84.0404 66.5384C86.0192 66.8748 86.2404 67.7836 87.9438 66.7641C89.2682 65.9714 90.6783 65.31 91.3593 63.9655C92.044 62.6136 92.3596 60.8031 92.3351 59.3012C92.312 57.8874 91.2305 57.6615 90.3834 56.5025C89.6846 55.5464 87.9438 54.6368 87.9438 54.6368L85.7482 56.5025L79.4052 49.9724Z" fill="#9A9DA0"/>
<path d="M69.6456 49.9724C69.6456 49.9724 66.559 48.5572 64.5224 48.5806C62.3731 48.6053 61.0331 49.2058 59.1553 50.2057C57.5651 51.0524 56.8714 51.8746 55.7398 53.2375C54.3357 54.9286 53.5094 56.0198 53.0563 58.135C52.596 60.2839 52.8867 61.6308 53.5442 63.7322C54.0936 65.4883 54.5769 66.4729 55.7398 67.9302C57.3464 69.9434 58.5623 71.1917 61.107 71.8948C61.9508 72.128 64.9766 72.1382 66.962 71.9024C68.9111 71.6708 71.1094 70.2699 71.1094 70.2699V63.5066C71.1094 63.5066 67.1078 66.1818 65.0104 66.5384C63.0316 66.8748 62.8104 67.7836 61.107 66.7641C59.7826 65.9714 58.3725 65.31 57.6915 63.9655C57.0068 62.6136 56.6911 60.8031 56.7157 59.3012C56.7388 57.8874 57.8202 57.6615 58.6674 56.5025C59.3662 55.5464 61.107 54.6368 61.107 54.6368L63.3026 56.5025L69.6456 49.9724Z" fill="#9A9DA0"/>
<path d="M78.5388 70.6297C80.2413 71.6221 82.1683 72.2088 84.1575 72.3403C86.1467 72.4719 88.1399 72.1445 89.9691 71.3857C91.7983 70.6269 93.4099 69.4589 94.6681 67.9802C95.9264 66.5015 96.7945 64.7554 97.1992 62.8889C97.604 61.0224 97.5335 59.0903 96.9938 57.2552C96.4541 55.4202 95.4609 53.7361 94.098 52.3447C92.735 50.9534 91.0423 49.8955 89.1622 49.2604C87.2822 48.6252 85.2701 48.4312 83.2952 48.6949L84.1304 54.4113C85.1469 54.2756 86.1826 54.3754 87.1503 54.7024C88.118 55.0293 88.9893 55.5738 89.6908 56.29C90.3924 57.0062 90.9036 57.873 91.1814 58.8175C91.4592 59.7621 91.4954 60.7566 91.2871 61.7173C91.0788 62.678 90.632 63.5768 89.9843 64.3379C89.3366 65.0991 88.5071 65.7003 87.5656 66.0908C86.6241 66.4814 85.5981 66.6499 84.5742 66.5822C83.5503 66.5145 82.5584 66.2125 81.6821 65.7017L78.5388 70.6297Z" fill="#9A9DA0"/>
<path d="M70.5139 70.6297C68.8115 71.6221 66.8845 72.2088 64.8952 72.3403C62.906 72.4719 60.9128 72.1445 59.0837 71.3857C57.2545 70.6269 55.6429 69.4589 54.3846 67.9802C53.1263 66.5015 52.2582 64.7554 51.8535 62.8889C51.4488 61.0224 51.5192 59.0903 52.0589 57.2552C52.5987 55.4202 53.5918 53.7361 54.9548 52.3447C56.3177 50.9534 58.0105 49.8955 59.8905 49.2604C61.7705 48.6252 63.7827 48.4312 65.7575 48.6949L64.9223 54.4113C63.9059 54.2756 62.8701 54.3754 61.9025 54.7024C60.9348 55.0293 60.0634 55.5738 59.3619 56.29C58.6604 57.0062 58.1492 57.873 57.8714 58.8175C57.5936 59.7621 57.5573 60.7566 57.7656 61.7173C57.974 62.678 58.4208 63.5768 59.0684 64.3379C59.7161 65.0991 60.5456 65.7003 61.4872 66.0908C62.4287 66.4814 63.4546 66.6499 64.4785 66.5822C65.5024 66.5145 66.4943 66.2125 67.3706 65.7017L70.5139 70.6297Z" fill="#9A9DA0"/>
<path d="M62.5708 74.2344C62.5708 74.2344 65.9863 77.4994 74.5249 77.4994C83.0635 77.4994 86.479 74.2344 86.479 74.2344L88.4307 77.7326C88.4307 77.7326 83.0635 81.2309 74.5249 81.2309C65.7423 81.2309 60.6191 77.7326 60.6191 77.7326L62.5708 74.2344Z" fill="#9A9DA0"/>
<path d="M64.41 76.2845L65.1105 76.4249L65.3666 76.5663L64.1468 78.586L63.8523 78.4235L64.8978 76.6923L64.3442 76.556L64.41 76.2845Z" fill="white"/>
<path d="M71.3348 78.9325C71.3072 79.1093 71.2404 79.2552 71.1344 79.3702L71.1374 79.3706L70.2883 80.3639L69.9729 80.3189L70.5953 79.5975C70.5346 79.5932 70.5002 79.5905 70.4922 79.5894C70.2799 79.5591 70.1167 79.4641 70.0024 79.3045C69.8905 79.143 69.8521 78.9501 69.8871 78.7258C69.9225 78.4994 70.018 78.3267 70.1737 78.2078C70.3301 78.0846 70.5155 78.0383 70.7297 78.0689C70.94 78.0989 71.1021 78.1948 71.216 78.3566C71.3302 78.5162 71.3699 78.7082 71.3348 78.9325ZM70.6847 78.3568C70.5526 78.338 70.4377 78.3657 70.3401 78.4399C70.2446 78.5145 70.1857 78.6229 70.1634 78.7653C70.1412 78.9076 70.1642 79.0288 70.2325 79.129C70.3031 79.2273 70.4045 79.2858 70.5367 79.3047C70.6688 79.3236 70.7827 79.2957 70.8783 79.2212C70.9762 79.1448 71.0363 79.0354 71.0585 78.893C71.0807 78.7507 71.0575 78.6305 70.9889 78.5325C70.9203 78.4346 70.8189 78.376 70.6847 78.3568Z" fill="white"/>
<path d="M77.8749 78.2456L77.5338 78.986C77.7074 78.9892 77.8565 79.041 77.9809 79.1414C78.1054 79.2418 78.1841 79.3789 78.2169 79.5527C78.2587 79.7737 78.2198 79.9588 78.1003 80.108C77.9792 80.2596 77.8175 80.3529 77.6152 80.3879C77.4477 80.4168 77.2941 80.4023 77.1544 80.3445C77.0148 80.2866 76.9046 80.1893 76.8239 80.0525L77.035 79.8632C77.1377 80.0604 77.3126 80.1377 77.5598 80.095C77.6947 80.0717 77.7961 80.0165 77.864 79.9294C77.9336 79.8398 77.9562 79.7307 77.9319 79.6019C77.9076 79.4732 77.8464 79.3785 77.7484 79.3178C77.6525 79.2568 77.5371 79.238 77.4023 79.2613L77.3287 79.274L77.1807 79.1101L77.5439 78.3194L76.5908 78.484L76.5379 78.204L77.8251 77.9817L77.8749 78.2456Z" fill="white"/>
<path d="M84.7909 78.4181C84.7261 78.6542 84.5811 78.8011 84.3559 78.8587C84.1308 78.9164 83.9284 78.8585 83.7488 78.685C83.5669 78.5099 83.4284 78.2527 83.3333 77.9135C83.2382 77.5742 83.2236 77.2853 83.2896 77.0467C83.3544 76.8106 83.4993 76.6637 83.7245 76.606C83.9497 76.5483 84.1521 76.6063 84.3317 76.7797C84.5136 76.9549 84.6521 77.212 84.7472 77.5513C84.8423 77.8905 84.8568 78.1795 84.7909 78.4181ZM83.5768 77.8511C83.6522 78.12 83.7506 78.3176 83.872 78.4439C83.9935 78.5702 84.1284 78.6144 84.2768 78.5764C84.4252 78.5384 84.5189 78.4356 84.558 78.2682C84.5989 78.1003 84.5817 77.8819 84.5063 77.613C84.4309 77.3441 84.3316 77.1467 84.2084 77.0208C84.0864 76.8925 83.9512 76.8473 83.8028 76.8853C83.6544 76.9233 83.5607 77.026 83.5215 77.1935C83.4824 77.3609 83.5008 77.5801 83.5768 77.8511Z" fill="white"/>
<path d="M28.3684 93.47L32.2614 98.3136H30.4412L26.7741 93.8208V98.3136H25.2461V88.8692H26.7741V93.1057L30.3083 88.8692H32.1286L28.3684 93.47Z" fill="#9A9DA0"/>
<path d="M40.233 97.0723C39.3029 98.0168 38.1647 98.489 36.8183 98.489C35.4719 98.489 34.3293 98.0168 33.3904 97.0723C32.4603 96.1189 31.9953 94.9586 31.9953 93.5914C31.9953 92.2242 32.4603 91.0684 33.3904 90.124C34.3293 89.1706 35.4719 88.6938 36.8183 88.6938C38.1647 88.6938 39.3029 89.1706 40.233 90.124C41.1719 91.0684 41.6413 92.2242 41.6413 93.5914C41.6413 94.9586 41.1719 96.1189 40.233 97.0723ZM34.4666 96.0199C35.1132 96.6586 35.8971 96.9779 36.8183 96.9779C37.7484 96.9779 38.5278 96.6586 39.1567 96.0199C39.7945 95.3723 40.1134 94.5628 40.1134 93.5914C40.1134 92.62 39.7945 91.815 39.1567 91.1764C38.5278 90.5287 37.7484 90.2049 36.8183 90.2049C35.8882 90.2049 35.1043 90.5287 34.4666 91.1764C33.8377 91.815 33.5232 92.62 33.5232 93.5914C33.5232 94.5538 33.8377 95.3633 34.4666 96.0199Z" fill="#9A9DA0"/>
<path d="M41.7458 98.3136V96.8834C42.3481 96.9644 42.7865 96.816 43.0611 96.4382C43.3446 96.0514 43.4863 95.3499 43.4863 94.3335V88.8692H49.7177V98.3136H48.1898V90.3534H45.0143V94.3065C45.0143 95.9525 44.6821 97.0768 44.0178 97.6795C43.4243 98.2011 42.667 98.4125 41.7458 98.3136Z" fill="#9A9DA0"/>
<path d="M55.5056 93.4565L58.4154 98.3136H56.6748L54.6287 94.9001L52.5825 98.3136H50.842L53.765 93.4565L51.0147 88.8692H52.742L54.6287 92.0129L56.5154 88.8692H58.2559L55.5056 93.4565Z" fill="#9A9DA0"/>
<path d="M66.8451 97.0723C65.915 98.0168 64.7768 98.489 63.4304 98.489C62.084 98.489 60.9414 98.0168 60.0025 97.0723C59.0724 96.1189 58.6074 94.9586 58.6074 93.5914C58.6074 92.2242 59.0724 91.0684 60.0025 90.124C60.9414 89.1706 62.084 88.6938 63.4304 88.6938C64.7768 88.6938 65.915 89.1706 66.8451 90.124C67.784 91.0684 68.2535 92.2242 68.2535 93.5914C68.2535 94.9586 67.784 96.1189 66.8451 97.0723ZM61.0787 96.0199C61.7253 96.6586 62.5092 96.9779 63.4304 96.9779C64.3605 96.9779 65.14 96.6586 65.7689 96.0199C66.4066 95.3723 66.7255 94.5628 66.7255 93.5914C66.7255 92.62 66.4066 91.815 65.7689 91.1764C65.14 90.5287 64.3605 90.2049 63.4304 90.2049C62.5004 90.2049 61.7165 90.5287 61.0787 91.1764C60.4498 91.815 60.1353 92.62 60.1353 93.5914C60.1353 94.5538 60.4498 95.3633 61.0787 96.0199Z" fill="#9A9DA0"/>
<path d="M73.975 93.416C74.9228 93.8747 75.3967 94.6348 75.3967 95.6961C75.3967 96.5236 75.0866 97.1982 74.4666 97.7199C73.8554 98.2326 73.0538 98.489 72.0617 98.489C70.361 98.489 69.2361 97.7604 68.6869 96.3033L70.0023 95.5342C70.2769 96.5326 70.9634 97.0318 72.0617 97.0318C72.6375 97.0318 73.0804 96.9059 73.3904 96.6541C73.7093 96.4022 73.8687 96.0559 73.8687 95.6152C73.8687 95.1835 73.7181 94.8417 73.417 94.5898C73.1158 94.338 72.6995 94.212 72.168 94.212H71.0387V92.8089H71.8624C72.385 92.8089 72.7925 92.6874 73.0848 92.4446C73.3771 92.2017 73.5233 91.8779 73.5233 91.4732C73.5233 91.0594 73.3904 90.7356 73.1247 90.5018C72.8589 90.2679 72.478 90.151 71.982 90.151C71.0608 90.151 70.4408 90.5782 70.1219 91.4327L68.8198 90.6637C69.4221 89.3505 70.4762 88.6938 71.982 88.6938C72.8855 88.6938 73.6251 88.9457 74.2009 89.4494C74.7678 89.9441 75.0512 90.5917 75.0512 91.3922C75.0512 92.2827 74.6925 92.9573 73.975 93.416Z" fill="#9A9DA0"/>
<path d="M87.1616 98.3136H85.6337V91.9049L81.2491 98.3136H80.0533V88.8692H81.5813V95.2779L85.9658 88.8692H87.1616V98.3136Z" fill="#9A9DA0"/>
<path d="M96.2869 88.8692H97.9212V98.3136H96.3932V91.5811L93.5632 96.3303H93.3772L90.5471 91.5676V98.3136H89.0192V88.8692H90.6667L93.4702 93.5914L96.2869 88.8692Z" fill="#9A9DA0"/>
<path d="M101.304 94.2795V96.8295H105.422V98.3136H99.7756V88.8692H105.356V90.3534H101.304V92.8089H105.024V94.2795H101.304Z" fill="#9A9DA0"/>
<path d="M112.335 92.7414V88.8692H113.863V98.3136H112.335V94.2255H108.349V98.3136H106.821V88.8692H108.349V92.7414H112.335Z" fill="#9A9DA0"/>
<path d="M122.83 98.3136H121.302V91.9049L116.918 98.3136H115.722V88.8692H117.25V95.2779L121.635 88.8692H122.83V98.3136Z" fill="#9A9DA0"/>
<path d="M29.0471 107.844H31.3829C32.8835 107.844 34.0939 108.244 35.014 109.043C35.92 109.843 36.373 110.909 36.373 112.242C36.373 113.574 35.92 114.647 35.014 115.46C34.108 116.273 32.8976 116.68 31.3829 116.68H25.2461V102.687H35.099V106.145H29.0471V107.844ZM29.0471 113.401H31.2343C32.1403 113.401 32.5933 113.015 32.5933 112.242C32.5933 111.855 32.4729 111.562 32.2323 111.362C31.9916 111.162 31.659 111.062 31.2343 111.062H29.0471V113.401Z" fill="#9A9DA0"/>
<path d="M41.6137 111.262V113.321H47.3683V116.68H37.8127V102.687H47.2621V106.025H41.6137V107.964H46.7312V111.262H41.6137Z" fill="#9A9DA0"/>
<path d="M56.5662 109.483L61.4926 116.68H57.2457L52.9775 110.423V116.68H49.1765V102.687H52.9775V108.564L57.0333 102.687H61.2803L56.5662 109.483Z" fill="#9A9DA0"/>
<path d="M66.3736 111.262V113.321H72.1282V116.68H62.5726V102.687H72.022V106.025H66.3736V107.964H71.4911V111.262H66.3736Z" fill="#9A9DA0"/>
<path d="M73.9364 102.687H79.7122C81.2128 102.687 82.4728 103.146 83.492 104.066C84.5113 104.985 85.0209 106.158 85.0209 107.584C85.0209 109.01 84.5113 110.183 83.492 111.102C82.4728 112.022 81.2128 112.482 79.7122 112.482H77.7374V116.68H73.9364V102.687ZM77.7374 109.083H79.7122C80.1369 109.083 80.4909 108.943 80.774 108.664C81.0713 108.384 81.2199 108.024 81.2199 107.584C81.2199 107.144 81.0713 106.791 80.774 106.525C80.4909 106.245 80.1369 106.105 79.7122 106.105H77.7374V109.083Z" fill="#9A9DA0"/>
<path d="M90.304 111.262V113.321H96.0586V116.68H86.503V102.687H95.9524V106.025H90.304V107.964H95.4216V111.262H90.304Z" fill="#9A9DA0"/>
<path d="M107.253 109.443C108.498 110.136 109.121 111.182 109.121 112.582C109.121 113.834 108.668 114.827 107.762 115.56C106.842 116.306 105.632 116.68 104.131 116.68H97.8669V102.687H103.728C105.228 102.687 106.417 103.046 107.295 103.766C108.187 104.472 108.633 105.438 108.633 106.665C108.633 107.837 108.173 108.763 107.253 109.443ZM103.621 105.885H101.668V108.084H103.621C103.975 108.084 104.266 107.991 104.492 107.804C104.719 107.604 104.832 107.331 104.832 106.984C104.832 106.651 104.719 106.385 104.492 106.185C104.266 105.985 103.975 105.885 103.621 105.885ZM101.668 113.481H104.025C104.407 113.481 104.719 113.375 104.959 113.161C105.2 112.935 105.32 112.648 105.32 112.302C105.32 111.942 105.2 111.655 104.959 111.442C104.719 111.229 104.407 111.122 104.025 111.122H101.668V113.481Z" fill="#9A9DA0"/>
<path d="M123.806 116.68H119.708L119.071 114.661H114.123L113.486 116.68H109.367L114.272 102.687H118.901L123.806 116.68ZM116.587 106.824L115.1 111.582H118.094L116.587 106.824Z" fill="#9A9DA0"/>
</svg>
