<svg width="150" height="126" viewBox="0 0 150 126" fill="none" xmlns="http://www.w3.org/2000/svg">
<path fill-rule="evenodd" clip-rule="evenodd" d="M52.8818 80.6179C50.8697 81.0145 48.9572 82.5947 48.3921 84.3275C48.1756 84.9913 48.0866 86.6255 48.2258 87.3802C48.4352 88.5155 49.3561 89.8528 50.4623 90.6278C51.9383 91.6621 53.5425 92.0952 55.8993 92.0959C58.4827 92.0967 60.6086 91.5881 65.2918 89.8491C66.7879 89.2937 68.0024 88.9518 68.7548 88.8743L69.2288 88.8256L68.9514 89.0006C68.1914 89.4805 63.5419 91.5846 61.4755 92.3838C59.2279 93.2532 57.1117 93.8455 55.1458 94.1554C53.7314 94.3783 50.8338 94.3584 49.4934 94.1165C47.3998 93.7385 45.7393 93.0435 44.2272 91.9119C41.9286 90.1919 40.6168 87.8236 40.4916 85.1682C40.4159 83.5645 40.8433 82.2398 41.8042 81.0991L42.2437 80.5774H41.9005C41.1535 80.5774 40.0495 81.1384 39.2973 81.9003C37.6382 83.5806 37.0527 86.0498 37.7081 88.6027C38.6218 92.1617 41.1733 95.0501 45.1632 97.0422L46.2073 97.5635L46.2082 98.0226C46.2093 98.6051 46.4127 99.929 46.5929 100.527C47.408 103.231 50.4204 105.034 54.1229 105.034C55.307 105.034 55.9167 104.947 57.6669 104.527C60.6393 103.814 63.457 102.605 67.5815 100.271C70.188 98.7966 71.8301 98.0264 73.7935 97.3574C75.1401 96.8987 76.2095 96.6536 78.5639 96.2644C81.0366 95.8556 82.5582 95.4842 83.6277 95.0286C84.8952 94.4887 86.1736 93.7147 87.3152 92.796L87.7561 92.4412L88.1082 93.4558C88.5482 94.724 88.9258 95.5359 89.4103 96.2561C91.3563 99.1483 94.5422 100.291 97.3055 99.0869C98.8923 98.3957 100.112 97.0514 100.683 95.3655C100.878 94.7917 100.9 94.5917 100.904 93.4318C100.909 91.9926 100.817 91.5277 100.313 90.4685C99.6115 88.9913 97.8138 87.5195 95.6077 86.6159L94.8685 86.313L94.868 85.7198C94.8673 84.8672 94.7371 84.2007 94.4691 83.6772C93.4708 81.7277 91.0175 81.1646 89.0892 82.4424C88.8527 82.5991 88.2601 83.0749 87.7722 83.4997C86.1725 84.8925 85.5423 85.189 84.1818 85.1894C83.1345 85.1896 82.4456 84.9991 80.5424 84.1834C78.2014 83.1799 77.5692 83.0107 75.9028 82.9419C72.7003 82.8097 70.7502 83.4074 64.7266 86.3674C60.2289 88.5775 58.5214 89.1027 56.2255 88.9821C54.7059 88.9024 53.2688 88.3884 52.5333 87.6617C51.883 87.0192 51.5426 85.9267 51.7095 85.0177C51.8688 84.1498 52.3335 83.5802 53.2053 83.1843C53.5788 83.0146 53.7539 82.9854 54.2353 83.0123C54.7196 83.0393 54.8753 83.0873 55.1791 83.3035C55.5952 83.5995 55.7425 83.9229 55.7496 84.5561C55.7548 85.036 55.6923 85.1055 54.6349 85.7938C54.3677 85.9677 54.1492 86.1417 54.1492 86.1803C54.1492 86.219 54.3488 86.3535 54.5927 86.4794C55.1951 86.7902 56.108 86.8075 56.7 86.5194C57.2066 86.2729 57.7098 85.7753 57.9625 85.2714C58.1324 84.9324 58.1607 84.7506 58.1613 83.9953C58.162 83.144 58.1513 83.0932 57.8428 82.4765C57.4756 81.7424 57.0745 81.3591 56.282 80.9849C55.2935 80.5183 54.0617 80.3853 52.8818 80.6179ZM92.1314 83.6699C92.645 83.9155 92.7955 84.1796 92.7973 84.838C92.7996 85.6906 92.4707 86.0587 91.6301 86.1444C91.0562 86.2029 90.8133 86.1458 90.4881 85.8754C89.2548 84.85 90.659 82.9655 92.1314 83.6699ZM77.2544 91.9625C73.8644 93.1247 70.9079 94.395 67.6237 96.1006C59.6754 100.228 56.4963 101.451 53.6423 101.477C52.4053 101.488 51.9377 101.393 50.9476 100.927C49.8636 100.417 49.1461 99.5879 48.8401 98.4909L48.7496 98.1662L49.443 98.2211C51.9567 98.4203 53.8872 98.36 56.0392 98.0152C59.0069 97.5397 62.464 96.4163 66.4832 94.6216C70.4952 92.8301 72.5284 92.1752 75.6113 91.6813C76.4756 91.5429 77.9021 91.4024 78.8596 91.3615C78.9525 91.3575 78.2302 91.628 77.2544 91.9625Z" fill="#9A9DA0"/>
<path fill-rule="evenodd" clip-rule="evenodd" d="M33.025 67.355C32.8952 68.3765 32.5631 70.8074 32.2871 72.7571C32.0111 74.7067 31.7852 76.3717 31.7852 76.4569C31.7852 76.6018 31.8619 76.6102 32.9639 76.5848C33.6414 76.5691 34.1805 76.5201 34.2317 76.4693C34.3361 76.3658 35.0286 71.5529 35.0837 70.5477C35.0862 70.5018 35.2509 71.0089 35.4496 71.6746C35.6483 72.3403 36.074 73.7215 36.3957 74.7439L36.9807 76.6031L38.2371 76.5803L39.4934 76.5576L40.0176 74.8464C40.9197 71.9005 41.3633 70.5097 41.3916 70.5377C41.4067 70.5526 41.57 71.7817 41.7545 73.269C41.9391 74.7564 42.1127 76.1142 42.1405 76.2863L42.1911 76.5993H43.6198C44.4604 76.5993 45.0485 76.5668 45.0485 76.5204C45.0485 76.477 44.7844 74.5333 44.4616 72.2009C44.1388 69.8685 43.8141 67.4907 43.7401 66.9168C43.5347 65.3247 43.6663 65.4977 42.6603 65.4983C41.6621 65.4988 41.2706 65.5856 40.9085 65.8866C40.5708 66.1673 40.5624 66.1886 39.3522 69.7785L38.3171 72.8488L38.0803 71.9487C37.6547 70.3311 36.3717 66.5026 36.1386 66.1546C35.7905 65.635 35.4033 65.5018 34.2337 65.4996L33.2609 65.4978L33.025 67.355ZM46.6536 71.0486V76.5993H50.0328H53.412V75.8463C53.412 75.1719 53.3887 75.0585 53.1887 74.7597C53.0657 74.5763 52.8662 74.3987 52.7451 74.3651C52.6241 74.3314 51.8312 74.3039 50.9832 74.3039H49.4415L49.4403 73.344C49.4397 72.816 49.4179 72.306 49.392 72.2105C49.3462 72.0419 49.3877 72.0342 50.8082 71.9462C51.613 71.8964 52.3319 71.832 52.4055 71.8031C52.6667 71.7009 52.8207 71.2039 52.8207 70.4625V69.757L51.1311 69.8109L49.4415 69.8647V68.8081V67.7515H51.073H52.7046L52.9527 67.4958C53.1898 67.2515 53.2021 67.2014 53.2296 66.369L53.2584 65.4978H49.956H46.6536V71.0486ZM54.8482 71.0405V76.5993H56.2843H57.7205V74.7333V72.8671L58.7976 72.8193C59.39 72.793 60.0963 72.7121 60.3672 72.6397C61.5652 72.3192 62.3694 71.7062 62.8173 70.7722C63.0752 70.2343 63.085 70.1742 63.085 69.1287C63.085 68.1092 63.0703 68.0122 62.8417 67.5233C62.4452 66.6751 61.6737 66.0731 60.5083 65.7026C60.1179 65.5784 59.6289 65.5491 57.4459 65.5183L54.8482 65.4817V71.0405ZM64.0565 71.0592V76.6208L64.9647 76.5826C65.964 76.5407 66.212 76.455 66.6461 76.0013C66.9154 75.7198 68.0943 74.0652 69.8806 71.4616L70.8571 70.0382L70.8279 73.2644L70.7986 76.4907L71.2503 76.5443C71.4987 76.5738 72.1106 76.5982 72.6101 76.5986L73.5183 76.5993V71.0486V65.4978H72.4486C71.4713 65.4978 71.349 65.5152 71.0335 65.6983C70.8436 65.8086 70.6072 66.0076 70.5082 66.1405C70.0261 66.7879 68.4681 69.0179 67.6916 70.1721C67.2128 70.8837 66.7978 71.4922 66.7693 71.5244C66.7408 71.5566 66.7285 70.2138 66.7418 68.5404L66.7659 65.4978H65.4112H64.0565V71.0592ZM78.07 65.731C77.2419 66.1585 77.1426 66.4396 76.6057 69.88C76.3079 71.7888 76.0613 72.871 75.7182 73.7754C75.5468 74.2273 75.5227 74.2513 75.1832 74.3068C74.5577 74.4092 74.532 74.4424 74.532 75.1502C74.532 75.7929 74.6686 77.9372 74.7506 78.5817L74.7958 78.9365H75.6737H76.5516L76.6384 78.6259C76.6862 78.455 76.7691 77.9292 76.8229 77.4573L76.9206 76.5993H80.0332H83.1458L83.1842 76.7871C83.2053 76.8904 83.2421 77.2191 83.266 77.5175C83.2899 77.8159 83.3559 78.2572 83.4126 78.4983L83.5159 78.9365H84.3762H85.2365L85.3121 77.7053C85.4255 75.8573 85.4009 74.4314 85.2538 74.3395C85.1881 74.2984 84.9536 74.2642 84.733 74.2634L84.3317 74.2622V69.88V65.4978H81.4268H78.5218L78.07 65.731ZM86.8661 71.0486V76.5993L87.5208 76.5973C88.3025 76.5948 88.8346 76.4852 89.1533 76.261C89.3824 76.0998 91.572 73.0678 92.9377 71.0206L93.6245 69.9911V73.2952V76.5993H94.9234H96.2222L96.275 76.3385C96.3041 76.195 96.3278 73.6935 96.3278 70.7795V65.4814L95.2085 65.5147C94.3557 65.54 94.0187 65.5831 93.7934 65.6957C93.4548 65.865 92.8103 66.7132 90.8365 69.5878C90.1272 70.6208 89.5174 71.4981 89.4814 71.5375C89.4454 71.5769 89.437 70.5628 89.4626 69.2838C89.4882 68.0049 89.4813 66.6299 89.4472 66.2282L89.3853 65.4978H88.1257H86.8661V71.0486ZM100.086 68.5214C98.8203 71.7931 97.0037 76.5411 97.0037 76.5771C97.0037 76.5893 97.6323 76.5993 98.4006 76.5993H99.7975L99.9703 76.2028C100.065 75.9848 100.22 75.5767 100.313 75.296L100.484 74.7856L101.046 74.7332C101.355 74.7043 102.221 74.6804 102.97 74.6801L104.332 74.6795L104.669 75.6185L105.007 76.5576L106.539 76.5804C107.381 76.5928 108.071 76.5825 108.071 76.5573C108.071 76.5002 106.422 72.3203 104.878 68.461L103.708 65.5395L102.483 65.5165L101.257 65.4936L100.086 68.5214ZM108.746 71.0486V76.5993H110.183H111.619V74.3039V72.0085H113.52H115.42V74.3039V76.5993H116.814H118.208V71.0486V65.4978H116.814H115.42V67.6379V69.7781L114.977 69.7254C114.733 69.6964 113.877 69.6724 113.076 69.6721L111.619 69.6713V67.5846V65.4978H110.183H108.746V71.0486ZM59.0818 67.6688C59.6526 67.7745 59.9081 67.9546 60.1493 68.4209C60.3823 68.8716 60.3935 69.4203 60.1792 69.8866C59.9029 70.4876 59.586 70.6254 58.0672 70.805C57.6189 70.858 57.6122 70.8557 57.6647 70.6616C57.6941 70.5531 57.7187 69.8164 57.7193 69.0244L57.7205 67.5846H58.1737C58.4228 67.5846 58.8315 67.6225 59.0818 67.6688ZM81.5438 71.0068V74.2622H79.9012H78.2586L78.4324 73.8739C78.728 73.2139 78.9166 72.4502 79.2235 70.6714C79.3861 69.7294 79.5854 68.7152 79.6664 68.4177L79.8137 67.8767L80.362 67.8285C80.6636 67.802 81.0528 67.7739 81.227 67.7659L81.5438 67.7515V71.0068ZM103.328 71.9072C103.427 72.1499 103.509 72.3847 103.509 72.4289C103.509 72.4761 103.073 72.5093 102.453 72.5093C101.746 72.5093 101.397 72.4792 101.397 72.4181C101.397 72.3216 102.317 69.5115 102.388 69.3931C102.41 69.3548 102.591 69.8055 102.789 70.3947C102.986 70.9839 103.229 71.6645 103.328 71.9072Z" fill="#9A9DA0"/>
<path fill-rule="evenodd" clip-rule="evenodd" d="M89.2778 44.4157C89.1317 44.4379 88.8579 44.667 88.4782 45.0844C88.1215 45.4767 87.6398 45.8857 87.2178 46.1546C86.3781 46.6899 86.0171 47.0388 85.7989 47.5265C85.5302 48.1265 85.5236 48.839 85.7754 50.038C85.944 50.8407 85.9915 51.2908 85.978 51.9578C85.9627 52.7185 85.9845 52.8746 86.1498 53.1872C86.3591 53.5835 86.4564 53.635 87.2796 53.7861C87.5917 53.8434 87.8794 53.9332 87.919 53.9857C87.9586 54.0382 88.06 54.3816 88.1443 54.7489C88.4945 56.2747 89.2291 58.0225 89.9995 59.1635C91.0201 60.6747 91.6092 61.0029 92.7176 60.6777C93.5369 60.4374 93.5354 60.4543 92.8307 59.374C91.7669 57.7434 91.0565 56.218 90.8516 55.1245C90.8072 54.8874 90.8713 54.9605 91.1921 55.5125C91.7149 56.4126 93.2894 58.4914 93.8917 59.0772C94.1555 59.3337 94.6007 59.6949 94.881 59.8799C95.3298 60.176 95.4476 60.2157 95.8668 60.2117C96.1287 60.2092 96.514 60.1425 96.7231 60.0637C97.0579 59.9374 97.1066 59.8868 97.1307 59.6393C97.1765 59.1674 97.0877 59.0089 96.4186 58.3697C96.0639 58.031 95.5854 57.5098 95.3552 57.2116C94.9258 56.6553 94.2083 55.3277 94.2923 55.2448C94.3181 55.2192 94.5429 55.4302 94.792 55.7135C95.4664 56.4809 97.1042 57.8485 97.69 58.1333C98.3578 58.4582 98.9367 58.5266 99.4878 58.3457C99.7195 58.2696 99.997 58.1151 100.104 58.0021C100.36 57.7334 100.428 57.0426 100.242 56.6036C100.11 56.2905 99.9334 56.1854 99.9334 56.4197C99.9334 56.5208 99.844 56.5017 99.4898 56.3246C98.9105 56.0352 98.1713 55.5347 97.9058 55.2523L97.6946 55.0276L98.4127 55.2903C98.9582 55.4899 99.3237 55.5641 99.9334 55.5992C100.882 55.6536 101.338 55.5538 101.741 55.2039C102.137 54.8611 102.179 54.5437 101.95 53.6344L101.764 52.8921L101.936 52.5684C102.031 52.3904 102.208 52.0607 102.33 51.8359C102.642 51.2621 102.616 51.0308 102.152 50.2493C101.754 49.5778 101.751 49.5698 101.696 48.6143C101.666 48.0861 101.637 47.6458 101.632 47.636C101.627 47.6261 101.505 47.485 101.36 47.3225C101.182 47.1222 100.999 47.0111 100.79 46.9778C100.503 46.932 100.464 46.8881 100.215 46.3314C100.067 46.0029 99.8582 45.5181 99.75 45.2541C99.5696 44.8142 99.5214 44.7639 99.173 44.6518C98.2153 44.3435 96.8705 44.2767 95.6993 44.4793C93.8191 44.8044 92.2156 45.6209 90.8161 46.9656C89.8273 47.9159 89.337 48.6855 88.6498 50.3662L88.2917 51.2421L88.2315 50.8452C88.1532 50.33 88.2494 49.4663 88.4612 48.7822C88.7588 47.8206 89.1024 47.2976 90.1126 46.2677C90.6353 45.7348 91.0627 45.2653 91.0625 45.2243C91.0621 45.1833 90.9071 44.9715 90.718 44.7534C90.3854 44.3701 90.3595 44.3573 89.937 44.3694C89.6967 44.3762 89.4001 44.3971 89.2778 44.4157Z" fill="#9A9DA0"/>
<path fill-rule="evenodd" clip-rule="evenodd" d="M67.619 43.4293C65.5125 44.1445 64.0994 45.0196 63.1291 46.21C62.78 46.6383 62.7013 46.6911 62.3498 46.7339C59.3322 47.101 56.884 48.0795 55.1393 49.616C54.6842 50.0167 54.565 50.2243 54.4436 50.8276C54.3955 51.0666 54.4179 51.0923 54.86 51.3066C55.1169 51.4311 55.326 51.5616 55.3244 51.5965C55.323 51.6315 55.266 51.733 55.1977 51.822C54.8578 52.2661 55.2344 53.1313 56.164 54.042C57.6532 55.5007 59.8561 55.8772 61.3504 54.9284C61.8977 54.5809 62.4703 53.9717 62.6815 53.5122C62.8976 53.0419 62.8979 52.1779 62.6823 51.5717C62.5173 51.1078 61.926 50.2148 61.5808 49.9081C61.4781 49.8167 61.3553 49.6706 61.308 49.5832C61.1736 49.3351 61.9435 49.9067 62.5427 50.4999C63.5486 51.4957 63.8953 52.376 63.7076 53.4574C63.4679 54.839 62.4876 55.8822 60.9211 56.423C60.6273 56.5245 60.3703 56.624 60.3497 56.6442C60.2864 56.7068 64.4283 58.679 65.6544 59.17C68.0112 60.1138 70.3329 60.6016 72.1285 60.5304C73.169 60.4892 73.5808 60.3784 74.2007 59.9727C74.7316 59.6253 74.8744 59.3717 74.9123 58.7099C74.941 58.2086 74.9143 58.0643 74.7208 57.6733C74.4717 57.1705 73.9677 56.7433 73.527 56.6617C73.2893 56.6176 73.2115 56.6558 72.8866 56.9769C72.4353 57.4229 71.8756 57.8046 71.4087 57.9851C70.53 58.3247 68.7555 58.3679 67.1543 58.0888C66.089 57.9031 64.7663 57.5207 64.7208 57.3853C64.6917 57.2984 64.723 57.2847 64.8408 57.333C65.4422 57.5794 67.2037 57.5804 68.6212 57.335C70.1502 57.0705 71.0789 56.6324 72.53 55.4914C73.0814 55.0579 73.6997 54.6227 73.9041 54.5245C75.162 53.9199 76.3403 54.5087 78.8554 56.9986C79.6921 57.8268 80.6805 58.7172 81.0519 58.9772C82.6269 60.0799 84.6304 60.7972 86.1412 60.7993C86.3852 60.7997 86.584 60.7718 86.5831 60.7374C86.5823 60.7029 86.3346 60.2621 86.0326 59.7578C85.3658 58.6439 85.2068 58.2372 84.9284 56.9343C84.6186 55.4846 84.6162 55.4813 83.2408 54.5572C82.2144 53.8675 81.9207 53.4917 81.8743 52.8081C81.8445 52.3695 81.8767 52.2588 82.2452 51.5348L82.6488 50.7418L82.655 48.7803C82.6612 46.8675 82.667 46.8036 82.8879 46.2086C83.1667 45.4574 83.4791 44.912 84.1911 43.9321C84.4937 43.5157 84.7229 43.1567 84.7002 43.1343C84.6165 43.0516 82.9734 43.3804 82.3503 43.6045C81.5495 43.8925 80.5561 44.5475 79.8282 45.2675C79.5224 45.5698 78.8181 46.3993 78.2629 47.1109C76.2256 49.7221 75.2156 50.416 73.8903 50.1148C73.1959 49.9571 71.5 49.0041 70.5813 48.2557L70.3336 48.0537L71.6796 48.0084C73.2884 47.9543 74.0454 47.8022 74.9804 47.3454C75.8011 46.9444 76.4285 46.3512 76.9905 45.4453C77.2027 45.1031 77.3764 44.8026 77.3764 44.7776C77.3764 44.7525 76.6255 44.7317 75.7079 44.7314C73.8429 44.7308 72.8763 44.589 71.3735 44.0955C70.5334 43.8197 69.2798 43.304 69.1438 43.1785C68.994 43.0401 68.5505 43.113 67.619 43.4293Z" fill="#9A9DA0"/>
<path fill-rule="evenodd" clip-rule="evenodd" d="M78.1154 26.9756C75.8081 27.1735 74.3254 27.6729 73.7551 28.4441C73.5104 28.7752 73.4969 28.832 73.5319 29.3808C73.5966 30.3925 74.3651 31.546 76.1189 33.2643C78.2679 35.3695 80.6111 36.8325 83.1875 37.6777C84.5167 38.1135 85.1825 38.241 87.4082 38.4852C90.9366 38.8724 91.8211 39.1425 93.1528 40.2398C94.1925 41.0963 94.0606 41.0512 94.9767 40.8655C95.8886 40.6807 97.1752 40.5307 98.0949 40.5021L98.7285 40.4823L98.3061 40.0716C97.7789 39.5589 96.9389 39.0126 95.7094 38.3824C94.8002 37.9164 94.7714 37.8937 95.0615 37.8696C95.8355 37.8055 98.0771 38.424 99.414 39.0704C101.142 39.9061 102.912 41.349 104.056 42.8545C105.925 45.3157 106.834 48.6767 106.56 52.1147C106.382 54.3534 106.046 55.6729 105.056 58.0213C104.754 58.738 104.523 59.3401 104.542 59.3593C104.562 59.3785 105.447 59.0898 106.509 58.7177C111.615 56.9284 112.508 56.9318 116.668 58.7562C117.474 59.1097 118.153 59.3805 118.176 59.3578C118.274 59.2608 117.573 56.6271 116.917 54.6305C116.098 52.1342 114.951 49.58 113.787 47.6607C113.228 46.7394 111.943 44.9264 111.888 44.9809C111.869 45 111.948 45.4417 112.065 45.9625C112.413 47.5229 112.488 48.1755 112.488 49.664C112.488 50.6734 112.445 51.2999 112.34 51.8342C112.171 52.6954 111.96 53.473 111.868 53.5704C111.834 53.6072 111.76 53.1189 111.704 52.4853C111.648 51.8518 111.528 50.8263 111.438 50.2066C110.522 43.9319 106.68 38.0174 100.961 34.0779C98.6542 32.4887 95.7024 30.9693 92.3409 29.6405C91.1343 29.1635 90.8722 29.0887 90.4097 29.0887C89.8949 29.0887 89.8626 29.1013 89.5673 29.4173C89.3984 29.598 89.0158 30.1521 88.717 30.6485C88.0691 31.7251 87.5501 32.265 86.8482 32.593C86.1587 32.9152 85.6206 32.973 84.8315 32.8096C84.2164 32.6822 83.0199 32.1714 82.6773 31.8899L82.5083 31.751L82.6773 31.7909C83.421 31.9666 84.6962 32.108 85.1767 32.0682C86.4929 31.9592 87.2575 31.2282 87.3472 29.9927C87.4332 28.8095 86.7478 28.1194 84.9214 27.5507C84.2784 27.3504 84.2012 27.3419 84.1322 27.4637C83.9006 27.8726 83.3012 28.4872 82.9713 28.6541C82.5213 28.8818 82.1654 28.8493 81.6802 28.5364C81.3248 28.3072 80.9065 27.7139 80.7602 27.2315L80.6652 26.9185L79.5593 26.9325C78.951 26.9402 78.3012 26.9596 78.1154 26.9756ZM96.1171 27.3765C95.3257 27.9324 94.5618 28.1064 92.3502 28.2345L91.2942 28.2957L92.2235 28.6205C93.4771 29.0586 94.8094 29.636 96.532 30.4876C97.7544 31.092 98.0467 31.2039 98.4962 31.2397L99.0242 31.2818L99.0229 31.0408C99.0177 30.0276 98.2888 28.4794 97.3477 27.4819C96.8887 26.9955 96.6844 26.978 96.1171 27.3765Z" fill="#9A9DA0"/>
<path fill-rule="evenodd" clip-rule="evenodd" d="M67.921 26.1161C67.8171 26.188 67.6603 26.3861 67.5723 26.5564C67.3573 26.9728 66.7111 27.5562 65.86 28.1023C64.8571 28.7457 64.2294 29.0394 61.9446 29.9339C57.3638 31.7272 54.5575 33.0949 51.7949 34.8803C46.7543 38.1381 42.9146 42.0577 39.8457 47.0784C38.7833 48.8166 37.6337 51.2611 36.171 54.8922C35.2501 57.1784 34.5962 58.5205 33.908 59.5363C33.6476 59.9206 33.4535 60.2536 33.4765 60.2763C33.5609 60.3597 35.2562 60.1059 35.9613 59.9042C36.9076 59.6334 37.2853 59.464 38.0015 58.9893C38.7271 58.5083 39.5751 57.8034 40.9543 56.5349C43.0491 54.6082 44.4039 53.5829 45.5252 53.0757C46.862 52.471 48.7121 52.8665 49.3535 53.8941C49.8139 54.6314 49.7318 55.7648 49.1559 56.6238C48.489 57.6187 47.5569 58.2252 46.0732 58.6297C45.6739 58.7385 45.3472 58.8516 45.3472 58.8809C45.3472 58.9102 45.5756 59.0321 45.8547 59.1517C47.4754 59.8461 49.2756 59.868 50.632 59.2098C51.3937 58.8401 52.3385 57.8963 52.7267 57.117C53.3432 55.8796 53.4358 54.5346 52.9939 53.2342C52.5601 51.9573 51.8821 51.1724 50.7224 50.6047C49.895 50.1995 49.0392 50.0312 47.7972 50.0291C46.665 50.0272 45.9237 50.1847 44.9716 50.6294C43.9349 51.1135 43.1217 51.7285 41.6514 53.1402C40.1624 54.5699 39.5839 55.0319 39.2782 55.0356C39.082 55.0379 39.2469 54.8392 40.5741 53.473C44.4338 49.5002 45.8072 48.2624 47.851 46.9143C49.5118 45.8189 50.8626 45.2019 52.9034 44.6066C54.416 44.1654 55.3597 43.9934 58.1984 43.6421C61.2053 43.2699 61.9145 43.1176 62.8887 42.6346C63.6016 42.2813 65.025 41.2541 65.0913 41.0453C65.1111 40.983 64.918 40.988 64.463 41.0617C63.4554 41.2248 61.8339 41.204 60.7903 41.0146C58.4111 40.5827 55.8431 40.5797 54.0799 41.0067C51.3065 41.6784 48.766 42.8778 46.4877 44.5911C45.0465 45.6749 43.1558 47.596 41.5544 49.6037C40.5919 50.8105 39.876 51.6107 39.7587 51.6107C39.6078 51.6107 41.6511 48.5421 42.8989 46.8946C44.8589 44.307 47.1358 42.1229 49.4868 40.5756C50.5945 39.8466 52.6221 38.8602 53.8147 38.4703C56.6829 37.5325 59.584 37.43 63.152 38.1405C64.5484 38.4185 65.9927 38.8399 69.2551 39.9214C72.6423 41.044 74.2365 41.4793 75.3833 41.5946C76.4351 41.7004 77.4455 41.6004 78.2528 41.3109C78.8122 41.1102 79.6461 40.5504 79.6461 40.3755C79.6461 40.3114 79.3987 40.2553 78.9491 40.2176C77.2637 40.0762 75.7455 39.671 74.4038 39.0044C74.0204 38.814 72.882 38.1576 71.8739 37.546C69.8537 36.3201 69.1615 35.9563 67.7727 35.3911C65.8701 34.6168 64.4803 34.3871 61.6519 34.3795L59.6666 34.3741L60.3037 34.1919C62.6214 33.5292 65.2327 31.9249 66.6259 30.3078C67.8312 28.9088 68.4482 27.4325 68.2842 26.3401C68.2252 25.9466 68.1938 25.9273 67.921 26.1161Z" fill="#9A9DA0"/>
<path fill-rule="evenodd" clip-rule="evenodd" d="M99.6063 81.8718C99.8522 83.6511 100.732 85.4185 102.213 87.1067C103.465 88.5337 104.066 89.3501 104.46 90.1566C104.914 91.0872 104.994 91.486 104.996 92.837C104.999 94.6451 104.686 95.9486 103.832 97.6783C103.246 98.8677 102.495 99.9099 101.544 100.855C100.315 102.076 99.131 102.806 96.945 103.691C95.6154 104.229 94.5717 104.473 92.9717 104.619C90.3247 104.861 87.7047 104.613 84.4392 103.812C82.3727 103.305 79.9512 102.929 78.1455 102.835C77.449 102.799 77.2111 102.763 77.3852 102.721C77.9655 102.581 80.011 102.437 81.2712 102.447C82.4433 102.457 82.8888 102.504 84.6241 102.802C87.39 103.278 88.7396 103.361 90.2472 103.149C90.2589 103.147 90.2684 103.071 90.2684 102.98C90.2684 102.885 90.0033 102.557 89.6448 102.208C88.9191 101.502 88.0983 100.293 87.7126 99.362C87.4513 98.7313 87.4334 98.7101 87.2017 98.7559C87.0695 98.782 86.7361 98.8977 86.4607 99.0129C86.1852 99.1282 85.7273 99.3196 85.4429 99.4385C84.6581 99.7665 83.5308 100.021 81.9893 100.22C77.5246 100.794 75.6842 101.201 73.4146 102.119C71.9502 102.711 70.9067 103.274 69.3596 104.306C68.5697 104.833 67.6763 105.428 67.3743 105.629C65.9609 106.566 63.4411 107.556 61.5874 107.902C60.2879 108.144 59.7996 108.298 59.5084 108.556C59.2865 108.753 59.2507 108.851 59.2064 109.379L59.1562 109.978L59.7382 110.242C62.8538 111.656 67.227 113.035 69.6553 113.368C69.9981 113.415 70.0203 113.408 69.8815 113.298C69.7396 113.186 69.7389 113.174 69.8715 113.148C69.9743 113.128 69.7571 112.874 69.1105 112.259C67.9719 111.176 67.0261 110.477 66.1071 110.04C65.4481 109.726 65.3333 109.698 64.7132 109.7C64.173 109.702 63.963 109.741 63.6668 109.896C63.3684 110.051 63.2823 110.067 63.2246 109.977C63.108 109.795 63.1328 109.757 63.5132 109.537C63.8378 109.349 63.9115 109.336 64.2102 109.418C64.4084 109.473 64.9122 109.493 65.4492 109.468C65.9469 109.445 66.5362 109.46 66.7586 109.501C66.9915 109.544 67.6288 109.83 68.2613 110.175C71.5147 111.951 72.2189 112.225 73.7103 112.3C74.7256 112.351 75.5449 112.204 76.1281 111.867C77.0719 111.32 78.0918 109.767 78.4244 108.37C78.6203 107.546 78.6951 107.691 78.6932 108.891C78.6905 110.526 78.3096 111.556 77.2752 112.725C76.9612 113.08 76.6174 113.482 76.5114 113.618C76.3304 113.85 76.328 113.869 76.4717 113.925C77.1054 114.172 82.3017 113.77 85.2853 113.243C90.2642 112.363 95.1559 110.61 98.3362 108.565C101.859 106.3 104.169 104.006 105.989 100.964C106.853 99.5204 107.979 96.9782 108.221 95.9254C108.295 95.6041 108.472 94.928 108.616 94.423C108.759 93.918 108.943 93.1855 109.024 92.7953L109.171 92.0858L109.236 92.5849C109.389 93.7663 109.142 96.0324 108.648 97.9704C108.454 98.7349 107.931 100.476 107.78 100.867C107.735 100.981 107.78 100.994 108.083 100.954C108.543 100.893 108.595 100.845 109.234 99.8967C110.301 98.3126 111.202 96.1361 111.811 93.6717C112.246 91.9105 112.788 91.0805 114.322 89.8224C115.67 88.7166 116.514 87.6727 117.282 86.1594C117.685 85.3641 118.324 83.5301 118.197 83.5301C118.177 83.5301 117.729 83.7368 117.203 83.9895C116.062 84.5368 115.688 84.6152 114.214 84.6152C111.409 84.6152 110.395 85.1739 109.293 87.326L108.956 87.9857L108.691 87.1386C108.364 86.0919 107.775 84.9127 107.4 84.5543C107.05 84.2202 105.216 83.2476 104.612 83.0758C104.366 83.0059 103.87 82.8933 103.509 82.8257C103.147 82.758 102.52 82.5656 102.115 82.3978C100.702 81.8132 100.193 81.6242 99.8753 81.5659L99.556 81.5073L99.6063 81.8718ZM74.1749 106.515C74.7881 106.8 74.9117 106.97 74.905 107.52C74.8984 108.069 74.6117 108.689 74.2094 109.024C73.9642 109.228 73.8971 109.243 73.4661 109.195C72.8966 109.132 72.2316 108.934 72.1265 108.796C71.9936 108.622 71.8517 108.023 71.8517 107.635C71.8517 106.607 73.0889 106.011 74.1749 106.515Z" fill="#9A9DA0"/>
</svg>
