<svg width="150" height="126" viewBox="0 0 150 126" fill="none" xmlns="http://www.w3.org/2000/svg">
<path fill-rule="evenodd" clip-rule="evenodd" d="M78.6425 17.7039C78.7882 18.0909 78.6523 18.5694 78.3401 18.7669C77.5501 19.2671 58.835 25.5436 54.0762 26.9044C52.287 27.4165 54.9565 27.6471 66.0913 27.9439L78.0918 28.268V44.9478L79.3666 45.3638V49.9189H76.5885C74.2584 49.9189 74.2321 49.9357 74.5114 51.2375C75.0023 53.5218 75.1044 53.6767 76.216 53.8373C77.2759 53.9908 77.306 54.1399 77.4349 59.9096L77.5675 65.8251L76.2057 65.5201C75.1462 65.2828 74.5156 65.4971 73.3626 66.4863C72.5477 67.1854 71.6025 67.6481 71.2621 67.5153C70.9216 67.382 69.4808 65.9037 68.0597 64.2298C65.6846 61.4324 65.4814 61.0076 65.5378 58.9616C65.5919 57.0101 65.8999 56.3834 68.0461 53.857L70.4927 50.9776L69.5208 48.6651L68.5483 46.3525L67.2829 48.3721C66.5865 49.4826 65.7527 50.3931 65.4292 50.3951C64.6876 50.3994 64.6665 50.5979 65.8148 46.8065C65.8148 46.8065 67.1926 42.0313 67.1926 41.7676C67.1926 40.8906 66.5159 41.268 62.8199 44.2091C59.8047 46.6085 59.2521 47.2496 59.7125 47.8149C60.1042 48.2963 60.1785 49.6523 59.9594 52.3274L59.6467 56.1523H60.9276C61.9236 56.1523 62.0825 56.2803 61.6438 56.7277C60.7372 57.6521 60.9455 60.3608 61.9659 60.9175C62.4535 61.1836 62.992 61.969 63.1627 62.6628C63.7331 64.9797 64.8475 66.2216 66.357 66.2216C67.6219 66.2216 67.7348 66.3424 67.471 67.4146C67.3097 68.0705 67.4376 69.0319 67.755 69.5502C68.7759 71.2174 67.8505 71.1177 63.765 69.1196C58.5397 66.5649 55.4531 65.6107 54.6396 66.2993C54.1928 66.6776 53.8181 66.6426 53.2604 66.1708C52.5945 65.6074 52.3171 65.7397 51.1259 67.1911C48.5551 70.3217 46.5411 75.8114 47.9631 75.8114C48.2495 75.8114 48.3595 76.1413 48.2076 76.5446C48.0092 77.072 48.3252 77.3578 49.3329 77.5635C50.1036 77.7208 50.7342 78.1461 50.7342 78.5086C50.7342 78.871 50.4822 79.1137 50.1742 79.048C49.3226 78.8658 48.6807 83.8908 49.4359 84.8239C49.7622 85.2267 50.0289 86.0068 50.0289 86.5578C50.0289 87.3211 50.3082 87.5455 51.2045 87.5028C52.3175 87.4501 53.0624 88.0168 53.0784 88.9293C53.0821 89.1561 52.5837 89.2127 51.9705 89.0559C50.9233 88.7879 50.8584 88.8943 50.9063 90.8017C50.9407 92.1606 51.5934 94.0954 52.8771 96.6438C54.957 100.772 56.0856 101.562 58.9634 100.905C60.3661 100.584 60.3676 100.58 59.1985 100.293C57.2541 99.8147 52.7074 90.1961 54.4256 90.1961C54.6452 90.1961 56.7086 89.043 59.0104 87.6333C61.3123 86.2236 63.7998 84.9193 64.5381 84.7347C65.574 84.4753 65.8256 84.1852 65.6403 83.4622C65.3253 82.2337 66.0988 81.7561 66.4703 82.9496C66.8926 84.3051 72.1992 86.8397 74.6153 86.8397H76.6153L76.3458 93.3128C76.0844 99.6114 76.1027 99.786 77.0427 99.786C77.6037 99.786 78.0081 99.4728 78.0081 99.0384C78.0081 99.0384 78.0081 94.6923 78.0081 91.906C78.0081 87.476 78.1078 86.8397 78.8 86.8397C80.0753 86.8397 83.5983 84.9208 84.3606 83.8112C85.0575 82.7966 85.0617 82.7986 85.0617 84.0635C85.0617 84.9663 85.3692 85.4324 86.1197 85.6659C86.7014 85.8467 88.0769 86.4062 89.1763 86.9087C91.3037 87.8816 91.8618 89.3283 90.3519 89.9564C89.5976 90.2705 89.6075 90.3289 90.4695 90.6588C91.0323 90.8741 92.0029 90.7317 92.887 90.3035C94.1984 89.6687 94.4773 89.6701 95.3797 90.3146C96.3695 91.0213 96.3131 91.0861 93.1973 92.8213C91.4386 93.8009 89.5318 95.0428 88.9609 95.5808C88.1305 96.3633 87.4994 96.5101 85.8061 96.3154L83.69 96.0723L85.1985 97.1377C86.2575 97.8848 86.9497 98.078 87.5196 97.7845C88.0261 97.5242 88.6666 97.5798 89.221 97.9332C89.9621 98.405 90.729 98.1931 93.8166 96.663C98.9648 94.1126 100.149 93.1627 99.8249 91.8451C99.6772 91.2438 99.8173 90.62 100.147 90.4124C100.554 90.1559 100.129 89.522 98.7414 88.3156L96.7528 86.586L98.5957 84.6105C100.652 82.4063 102.931 78.5349 102.931 77.2456C102.931 76.7819 102.522 76.2938 102.023 76.1605C101.108 75.9169 100.927 75.4101 99.6227 69.4582C99.2549 67.7795 98.772 66.7011 98.3883 66.7011C98.0417 66.7011 97.7582 66.3774 97.7582 65.9819C97.7582 65.5863 97.3749 65.2626 96.907 65.2626C95.8217 65.2626 90.4695 67.393 88.8702 68.4613C88.2001 68.9091 87.19 69.2961 86.6257 69.321C86.0614 69.3464 85.1995 69.7363 84.71 70.188C83.9726 70.8683 83.6806 70.9048 83.0025 70.3989C82.2285 69.8216 82.2332 69.6749 83.089 67.6385C83.912 65.6807 83.9265 65.4242 83.2494 64.7793C82.5718 64.1339 82.5727 64.0577 83.2612 63.9229C83.6764 63.8414 84.4447 62.7228 84.9686 61.4372C85.8423 59.2944 85.8564 59.0743 85.1388 58.7909C84.4175 58.5056 84.4208 58.4332 85.1793 57.8631C85.7092 57.4656 86.0022 56.6045 86.0022 55.4465C86.0022 53.6508 85.9998 53.6484 84.3563 53.9629C82.4542 54.3269 82.1899 53.7213 83.8546 52.8131L84.9987 52.1888L84.0559 49.7353C82.9315 46.808 82.6851 46.5203 80.7397 45.8677L79.3666 45.3638V32.4636C79.4635 20.7703 79.3586 17 78.9364 17C78.6293 17 78.4972 17.317 78.6425 17.7039ZM75.2704 44.7222C75.2704 44.8732 75.9052 46.0173 76.6811 47.2649L78.0918 49.5334V47.2817C78.0918 45.6577 78.0918 45.6035 78.0918 45.6035C78.0918 45.6035 76.4234 44.8991 76.0143 44.739C75.6052 44.5788 75.2704 44.5716 75.2704 44.7222ZM81.944 55.7927C82.0997 56.3858 82.2304 58.3618 82.2337 60.1829C82.2393 63.0109 82.063 63.7311 81.0247 65.1192C80.0457 66.4278 79.9196 66.8799 80.3767 67.4419C80.8286 67.9967 80.8079 68.1396 80.2756 68.1396C79.9079 68.1396 79.353 67.8806 79.0426 67.5642C78.4214 66.9308 78.3001 62.3459 78.7802 57.6613C79.0694 54.8428 79.139 54.7138 80.3715 54.7138C81.3106 54.7138 81.7371 55.0068 81.944 55.7927ZM58.2247 70.7734C59.6288 71.4912 61.6151 72.3797 62.6388 72.7479C64.3241 73.3545 64.5588 73.3382 65.1259 72.5768C65.7095 71.7928 65.7532 71.8053 65.7668 72.7595C65.7753 73.3339 65.266 74.1279 64.6063 74.5686C63.9597 75.0006 63.426 75.7265 63.4203 76.1821C63.4114 76.8725 63.2746 76.8308 62.5951 75.9308C61.7496 74.8112 56.8535 73.4394 53.6417 73.4221C52.2578 73.4149 52.1177 73.5305 52.4026 74.4454C52.6547 75.2547 52.5653 75.4149 51.9884 75.189C51.5139 75.0035 51.1495 75.2332 50.9618 75.8359C50.6435 76.8581 49.7938 77.1185 49.7938 76.1931C49.7938 75.8757 50.7925 73.9438 52.0138 71.8993C53.9431 68.6685 54.3273 68.2666 54.9527 68.8257C55.3482 69.1791 56.8205 70.0561 58.2247 70.7734ZM96.181 71.3761C96.4504 72.629 96.7566 73.9774 96.8619 74.373C97.0232 74.9809 96.2304 75.0931 91.7288 75.0994C88.801 75.1032 86.242 74.9953 86.0426 74.8596C85.6297 74.5787 84.963 71.496 85.3152 71.496C85.4412 71.496 85.9476 71.7525 86.4404 72.0666C87.15 72.5183 87.5027 72.4962 88.1357 71.9606C88.7568 71.4351 94.0132 69.4078 95.4319 69.1465C95.5744 69.1201 95.912 70.1232 96.181 71.3761ZM100.093 76.7388C100.792 78.0703 100.703 78.7166 99.5653 80.6063C98.9502 81.6272 98.471 82.0381 98.3422 81.655C98.2256 81.3083 98.5073 80.7439 98.9681 80.4001C99.76 79.8099 99.7623 79.6823 99.017 78.0809C98.0539 76.0104 98.045 75.8114 98.9173 75.8114C99.2958 75.8114 99.8249 76.2286 100.093 76.7388ZM63.9677 77.9806C65.3338 78.2161 65.7819 78.5196 65.7819 79.21C65.7819 79.8794 65.4494 80.1268 64.5513 80.1268C63.5661 80.1268 63.3686 80.3119 63.5591 81.0546C63.8407 82.1527 62.6915 82.7918 62.3012 81.7547C62.0867 81.1846 61.3687 81.42 58.6521 82.9496C56.7923 83.9968 54.8822 85.1926 54.4077 85.6069C53.3126 86.5635 52.6152 86.5683 52.6152 85.6199C52.6152 85.0061 53.7287 79.7936 54.2577 77.9317C54.4139 77.3817 60.676 77.4134 63.9677 77.9806ZM88.3534 78.2089C88.3534 79.2455 89.039 79.3807 93.8787 79.2968C95.2711 79.2729 96.3474 79.4675 96.3474 79.7432C96.3474 80.0127 95.6877 81.2709 94.8808 82.5401C93.3327 84.9769 93.3398 84.9754 90.3768 83.4348C89.2181 82.8326 88.4747 82.6883 88.1634 83.0057C87.4152 83.7686 87.0108 83.5605 87.2709 82.5459C87.4529 81.8377 87.2121 81.5322 86.2867 81.2954C85.3203 81.0479 85.0617 80.6893 85.0617 79.5956C85.0617 78.8327 85.2733 78.2089 85.5319 78.2089C85.7906 78.2089 86.0022 78.4246 86.0022 78.6884C86.0022 78.9521 86.3196 79.1679 86.7075 79.1679C87.0992 79.1679 87.4129 78.7416 87.4129 78.2089C87.4129 77.6814 87.6245 77.2499 87.8831 77.2499C88.1418 77.2499 88.3534 77.6814 88.3534 78.2089ZM93.9962 87.5738C93.9962 87.978 93.6647 88.4378 93.2594 88.5966C92.3749 88.9427 91.4104 88.0941 91.8548 87.3609C92.334 86.5707 93.9962 86.7361 93.9962 87.5738Z" fill="#9A9DA0"/>
<path d="M20.1795 117.326V120.058H18.938V118.486H13.3826V120.058H12.1309L12.1412 117.326H12.4516C12.9068 117.305 13.224 116.963 13.4033 116.302C13.5895 115.634 13.7033 114.681 13.7447 113.444L13.8275 111.102H19.1346V117.326H20.1795ZM14.9241 113.57C14.8896 114.527 14.8137 115.325 14.6965 115.965C14.5792 116.598 14.393 117.051 14.1378 117.326H17.8104V112.262H14.9758L14.9241 113.57Z" fill="#9A9DA0"/>
<path d="M26.8138 116.777H23.1929L22.4791 118.486H21.0928L24.3516 111.102H25.6758L28.9449 118.486H27.5379L26.8138 116.777ZM26.3689 115.701L25.0034 112.473L23.6481 115.701H26.3689Z" fill="#9A9DA0"/>
<path d="M36.8096 111.102V118.486H35.4855V112.262H32.6302L32.5681 114.108C32.5336 115.142 32.4508 115.982 32.3198 116.629C32.1888 117.269 31.9784 117.758 31.6887 118.096C31.3991 118.426 30.9991 118.591 30.4887 118.591C30.3094 118.591 30.0645 118.556 29.7542 118.486L29.8473 117.294C29.9369 117.322 30.0404 117.336 30.1576 117.336C30.5783 117.336 30.8749 117.083 31.0473 116.577C31.2267 116.063 31.337 115.258 31.3784 114.161L31.4818 111.102H36.8096Z" fill="#9A9DA0"/>
<path d="M42.7056 113.602C43.5746 113.602 44.2402 113.802 44.7023 114.203C45.1713 114.597 45.4057 115.184 45.4057 115.965C45.4057 116.781 45.1506 117.406 44.6402 117.843C44.1298 118.271 43.4126 118.486 42.4884 118.486H39.3745V111.102H40.6987V113.602H42.7056ZM42.4263 117.431C42.9505 117.431 43.3539 117.308 43.6367 117.062C43.9195 116.816 44.0609 116.457 44.0609 115.986C44.0609 115.093 43.516 114.646 42.4263 114.646H40.6987V117.431H42.4263Z" fill="#9A9DA0"/>
<path d="M53.9488 118.486L53.9385 113.591L51.5591 117.642H50.9591L48.5796 113.655V118.486H47.3072V111.102H48.4141L51.2798 115.986L54.1144 111.102H55.211L55.2316 118.486H53.9488Z" fill="#9A9DA0"/>
<path d="M61.1273 118.591C60.3894 118.591 59.7238 118.43 59.1307 118.106C58.5376 117.776 58.072 117.322 57.7341 116.745C57.3961 116.162 57.2272 115.511 57.2272 114.794C57.2272 114.077 57.3961 113.43 57.7341 112.853C58.072 112.269 58.5376 111.816 59.1307 111.492C59.7238 111.162 60.3894 110.996 61.1273 110.996C61.8653 110.996 62.5308 111.162 63.124 111.492C63.7171 111.816 64.1826 112.266 64.5206 112.842C64.8585 113.419 65.0275 114.07 65.0275 114.794C65.0275 115.518 64.8585 116.169 64.5206 116.745C64.1826 117.322 63.7171 117.776 63.124 118.106C62.5308 118.43 61.8653 118.591 61.1273 118.591ZM61.1273 117.389C61.6101 117.389 62.0446 117.28 62.4308 117.062C62.817 116.837 63.1205 116.527 63.3412 116.134C63.5619 115.733 63.6722 115.286 63.6722 114.794C63.6722 114.302 63.5619 113.859 63.3412 113.465C63.1205 113.064 62.817 112.754 62.4308 112.536C62.0446 112.311 61.6101 112.199 61.1273 112.199C60.6445 112.199 60.21 112.311 59.8238 112.536C59.4376 112.754 59.1341 113.064 58.9134 113.465C58.6927 113.859 58.5824 114.302 58.5824 114.794C58.5824 115.286 58.6927 115.733 58.9134 116.134C59.1341 116.527 59.4376 116.837 59.8238 117.062C60.21 117.28 60.6445 117.389 61.1273 117.389Z" fill="#9A9DA0"/>
<path d="M70.0111 111.102C70.6387 111.102 71.1835 111.207 71.6456 111.418C72.1146 111.629 72.4732 111.932 72.7215 112.325C72.9698 112.719 73.094 113.187 73.094 113.728C73.094 114.263 72.9698 114.731 72.7215 115.131C72.4732 115.525 72.1146 115.828 71.6456 116.039C71.1835 116.25 70.6387 116.355 70.0111 116.355H68.3765V118.486H67.0316V111.102H70.0111ZM69.949 115.195C70.5352 115.195 70.9801 115.068 71.2835 114.815C71.587 114.562 71.7387 114.2 71.7387 113.728C71.7387 113.257 71.587 112.895 71.2835 112.642C70.9801 112.389 70.5352 112.262 69.949 112.262H68.3765V115.195H69.949Z" fill="#9A9DA0"/>
<path d="M80.3148 117.336V118.486H74.8835V111.102H80.1699V112.252H76.2284V114.172H79.7251V115.3H76.2284V117.336H80.3148Z" fill="#9A9DA0"/>
<path d="M88.7454 111.102V118.486H87.4212V112.262H83.6658V118.486H82.3416V111.102H88.7454Z" fill="#9A9DA0"/>
<path d="M94.284 111.102C94.9117 111.102 95.4565 111.207 95.9186 111.418C96.3876 111.629 96.7462 111.932 96.9945 112.325C97.2428 112.719 97.3669 113.187 97.3669 113.728C97.3669 114.263 97.2428 114.731 96.9945 115.131C96.7462 115.525 96.3876 115.828 95.9186 116.039C95.4565 116.25 94.9117 116.355 94.284 116.355H92.6495V118.486H91.3046V111.102H94.284ZM94.222 115.195C94.8082 115.195 95.253 115.068 95.5565 114.815C95.86 114.562 96.0117 114.2 96.0117 113.728C96.0117 113.257 95.86 112.895 95.5565 112.642C95.253 112.389 94.8082 112.262 94.222 112.262H92.6495V115.195H94.222Z" fill="#9A9DA0"/>
<path d="M102.609 118.591C101.871 118.591 101.206 118.43 100.613 118.106C100.02 117.776 99.5541 117.322 99.2161 116.745C98.8782 116.162 98.7092 115.511 98.7092 114.794C98.7092 114.077 98.8782 113.43 99.2161 112.853C99.5541 112.269 100.02 111.816 100.613 111.492C101.206 111.162 101.871 110.996 102.609 110.996C103.347 110.996 104.013 111.162 104.606 111.492C105.199 111.816 105.665 112.266 106.003 112.842C106.341 113.419 106.51 114.07 106.51 114.794C106.51 115.518 106.341 116.169 106.003 116.745C105.665 117.322 105.199 117.776 104.606 118.106C104.013 118.43 103.347 118.591 102.609 118.591ZM102.609 117.389C103.092 117.389 103.527 117.28 103.913 117.062C104.299 116.837 104.603 116.527 104.823 116.134C105.044 115.733 105.154 115.286 105.154 114.794C105.154 114.302 105.044 113.859 104.823 113.465C104.603 113.064 104.299 112.754 103.913 112.536C103.527 112.311 103.092 112.199 102.609 112.199C102.127 112.199 101.692 112.311 101.306 112.536C100.92 112.754 100.616 113.064 100.396 113.465C100.175 113.859 100.064 114.302 100.064 114.794C100.064 115.286 100.175 115.733 100.396 116.134C100.616 116.527 100.92 116.837 101.306 117.062C101.692 117.28 102.127 117.389 102.609 117.389Z" fill="#9A9DA0"/>
<path d="M115.491 117.326V120.058H114.25V118.486H108.694V120.058H107.443L107.453 117.326H107.763C108.219 117.305 108.536 116.963 108.715 116.302C108.901 115.634 109.015 114.681 109.057 113.444L109.139 111.102H114.446V117.326H115.491ZM110.236 113.57C110.201 114.527 110.126 115.325 110.008 115.965C109.891 116.598 109.705 117.051 109.45 117.326H113.122V112.262H110.288L110.236 113.57Z" fill="#9A9DA0"/>
<path d="M123.492 111.102L120.347 117.062C120.072 117.589 119.74 117.987 119.354 118.254C118.975 118.514 118.561 118.644 118.113 118.644C117.754 118.644 117.399 118.567 117.047 118.412L117.378 117.336C117.661 117.428 117.896 117.473 118.082 117.473C118.516 117.473 118.875 117.245 119.158 116.788L119.271 116.608L116.385 111.102H117.823L119.965 115.437L122.168 111.102H123.492Z" fill="#9A9DA0"/>
<path d="M127.614 115.374H126.269V118.486H124.945V111.102H126.269V114.193H127.655L129.735 111.102H131.162L128.69 114.678L131.256 118.486H129.735L127.614 115.374Z" fill="#9A9DA0"/>
<path d="M137.87 112.262H135.47V118.486H134.136V112.262H131.746V111.102H137.87V112.262Z" fill="#9A9DA0"/>
</svg>
