<svg width="150" height="126" viewBox="0 0 150 126" fill="none" xmlns="http://www.w3.org/2000/svg">
<path d="M25.8305 100.857H20.7756V113.534H15.0549V100.857H10V96.3692H25.8305V100.857Z" fill="#9A9DA0"/>
<path d="M43.5241 96.3692L36.5951 109.292C35.7732 110.828 34.7622 111.997 33.5622 112.798C32.3786 113.599 31.0717 114 29.6415 114C28.5401 114 27.4223 113.771 26.288 113.313L27.6442 109.145C28.3675 109.341 28.9593 109.439 29.4196 109.439C29.847 109.439 30.2087 109.365 30.5046 109.218C30.8169 109.071 31.1128 108.826 31.3923 108.483L24.7839 96.3692H30.9238L34.3512 103.603L37.902 96.3692H43.5241Z" fill="#9A9DA0"/>
<path d="M61.0072 96.3692V113.534H55.1879V107.208H49.8125V113.534H43.9931V96.3692H49.8125V102.45H55.1879V96.3692H61.0072Z" fill="#9A9DA0"/>
<path d="M75.5174 110.542H68.9583L67.7994 113.534H61.8814L69.4268 96.3692H75.1475L82.6929 113.534H76.6763L75.5174 110.542ZM73.9146 106.374L72.2379 102.058L70.5611 106.374H73.9146Z" fill="#9A9DA0"/>
<path d="M83.5463 96.3692H89.267V105.295L95.2096 96.3692H100.684V113.534H94.963V104.633L89.0451 113.534H83.5463V96.3692ZM92.1027 95.3883C90.1958 95.3883 88.8231 95.0368 87.9848 94.3339C87.1464 93.6309 86.7272 92.5765 86.7272 91.1707H90.5985C90.5985 91.7265 90.7054 92.127 90.9191 92.3722C91.1492 92.6174 91.5437 92.74 92.1027 92.74C92.6616 92.74 93.0561 92.6174 93.2863 92.3722C93.5328 92.127 93.6561 91.7265 93.6561 91.1707H97.5275C97.5275 92.5765 97.1 93.6309 96.2452 94.3339C95.3904 95.0368 94.0096 95.3883 92.1027 95.3883Z" fill="#9A9DA0"/>
<path d="M118.334 96.3692V113.534H112.613V108.041C111.463 108.385 110.419 108.556 109.482 108.556C106.95 108.556 105.019 107.96 103.687 106.766C102.372 105.573 101.715 103.832 101.715 101.543V96.3692H107.435V100.906C107.435 101.952 107.665 102.728 108.126 103.235C108.586 103.726 109.285 103.971 110.222 103.971C111.191 103.971 111.989 103.84 112.613 103.578V96.3692H118.334Z" fill="#9A9DA0"/>
<path d="M132.824 110.542H126.265L125.106 113.534H119.188L126.734 96.3692H132.455L140 113.534H133.983L132.824 110.542ZM131.222 106.374L129.545 102.058L127.868 106.374H131.222Z" fill="#9A9DA0"/>
<path d="M57.1016 57.8779H66.5218V80.7072H60.8697C59.9276 70.2438 59.3498 66.8013 57.1016 57.8779Z" fill="#9A9DA0"/>
<path d="M92.8984 57.8779H83.4782V80.7072H89.1303C90.0724 70.2438 90.6502 66.8013 92.8984 57.8779Z" fill="#9A9DA0"/>
<path d="M81.5957 57.8779H68.4073V80.7072H81.5957V57.8779Z" fill="#9A9DA0"/>
<path fill-rule="evenodd" clip-rule="evenodd" d="M63.6962 46.939C58.6056 42.4431 55.3503 40.6749 50.5078 38.8537C51.2538 40.8224 51.9627 42.5378 52.6309 44.1547C54.2057 47.9656 55.5546 51.2299 56.631 55.9756H75.0005V36C73.1914 40.7846 71.6666 43.3516 67.9353 47.4146H72.6455C72.6455 47.4146 71.6439 50.1229 70.2904 51.2195C68.6546 52.5448 67.1746 53.0145 65.1093 52.6463C62.7895 52.2328 60.3991 48.8415 60.3991 48.8415L63.6962 46.939ZM86.3049 46.939C91.3955 42.4431 94.6508 40.6749 99.4933 38.8537C98.7473 40.8224 98.0385 42.5378 97.3703 44.1547C95.7954 47.9656 94.4465 51.2299 93.3701 55.9756H75.0006V36C76.8098 40.7846 78.3346 43.3516 82.0658 47.4146H77.3557C77.3557 47.4146 78.3572 50.1229 79.7107 51.2195C81.3466 52.5448 82.8266 53.0145 84.8919 52.6463C87.2116 52.2328 89.602 48.8415 89.602 48.8415L86.3049 46.939Z" fill="#9A9DA0"/>
</svg>
