<svg width="150" height="126" viewBox="0 0 150 126" fill="none" xmlns="http://www.w3.org/2000/svg">
<path fill-rule="evenodd" clip-rule="evenodd" d="M71.2158 33.0747C67.9861 33.4226 64.7182 34.2974 61.5361 35.6657C60.2007 36.24 59.4446 36.644 57.8932 37.6121C57.3162 37.9722 56.6492 38.3822 56.411 38.5232C55.1052 39.2961 51.9968 42.133 50.3723 44.0343C49.0958 45.5282 47.4133 48.1864 46.4765 50.1892C45.2824 52.7419 44.3409 55.8444 43.8717 58.7735C43.5963 60.493 43.5618 64.84 43.8097 66.5917C44.6194 72.3111 46.605 77.0255 50.0322 81.3655C51.6438 83.4063 54.7353 86.3622 56.147 87.2122C56.3944 87.361 57.2099 87.868 57.9594 88.3388C63.0344 91.5264 68.8025 93.1095 74.9485 93.0017C77.7289 92.9529 79.6189 92.6906 82.4138 91.9655C85.6142 91.1354 88.6812 89.7725 91.4608 87.9454C91.948 87.6253 92.4736 87.2932 92.6288 87.2077C93.2712 86.8535 95.2 85.2248 96.3088 84.1C100.391 79.9589 102.974 75.3868 104.291 69.9707C104.731 68.1607 105.063 65.9961 105.063 64.94V64.2183L98.4517 64.2515L91.8404 64.2847L91.8066 67.6491C91.7753 70.787 91.788 71.0146 91.9964 71.0314C92.1194 71.0414 92.9028 71.0572 93.7373 71.0666C95.0328 71.0814 95.2603 71.1144 95.2944 71.2935C95.3712 71.6972 93.2624 75.5245 92.7273 75.9529C92.6358 76.0262 92.3512 76.3434 92.095 76.6578C87.5938 82.1816 80.7 85.3284 73.7464 85.0334C69.738 84.8633 67.1116 84.1875 63.8081 82.4758C60.912 80.9752 59.0784 79.4516 56.2547 76.199C54.9711 74.7204 53.4288 71.8168 52.6839 69.4763C50.9691 64.0889 51.4933 57.9271 54.0891 52.9582C55.0902 51.042 55.8566 49.9959 57.5808 48.1927C60.4599 45.1814 63.3024 43.328 66.927 42.0988C73.4425 39.889 81.1579 40.8375 86.7792 44.5392C88.4129 45.615 90.2447 47.1813 91.378 48.4715C91.9587 49.1327 92.5687 49.8249 92.7336 50.0097C93.7066 51.1007 95.0477 53.6006 95.8677 55.8517L96.2784 56.9792L100.418 57.013C102.921 57.0334 104.557 56.9994 104.557 56.9271C104.557 56.8613 104.356 56.0962 104.11 55.2271C102.656 50.0788 100.252 45.9072 96.6364 42.2564C95.4682 41.0768 93.0388 38.9717 92.8457 38.9717C92.7985 38.9717 92.4962 38.7778 92.1737 38.5407C88.6997 35.9869 83.8758 34.0882 78.7494 33.257C77.3336 33.0275 72.6958 32.9152 71.2158 33.0747ZM72.371 45.5071C68.2847 46.0295 64.831 48.0295 63.1428 50.8513C62.2565 52.3327 61.8496 54.1895 62.0421 55.8736C62.2904 58.0454 63.0611 59.6175 64.5868 61.0645C66.3861 62.7707 67.3475 63.1881 74.0628 65.1785C78.7855 66.5784 80.5159 67.8767 80.5159 70.0207C80.5159 72.4726 78.2508 73.966 74.5426 73.9591C70.1956 73.9508 67.8627 71.8172 67.8627 67.8498V66.9121H64.3831H60.9035V67.7925C60.9035 69.7886 61.5593 72.356 62.5121 74.0895C63.2331 75.4011 64.6279 76.8723 66.0289 77.7987C69.488 80.0861 75.1126 80.6284 79.8106 79.1277C82.8028 78.1718 85.3853 76.1659 86.5491 73.8936C87.3915 72.2491 87.5362 71.6043 87.5268 69.5395C87.5195 67.955 87.4791 67.6241 87.1819 66.7099C86.573 64.8377 85.2834 63.3518 83.2105 62.1335C81.6316 61.2057 78.995 60.2623 74.7475 59.1055C72.3617 58.4555 71.2999 58.0532 70.4338 57.4708C68.3866 56.0944 68.5867 53.3492 70.8257 52.0977C72.0604 51.4074 74.0604 51.2115 76.0122 51.5899C77.7083 51.9185 78.8153 52.6202 79.2659 53.652C79.4942 54.1749 79.7581 56.0874 79.7162 56.9151L79.6934 57.3637H83.173H86.6526L86.6889 56.1023C86.8437 50.7366 83.8279 47.0705 78.3016 45.9061C77.6056 45.7595 76.8654 45.6107 76.6567 45.5754C75.8711 45.4426 73.2074 45.4002 72.371 45.5071ZM123.091 101.883C123.058 101.917 123.03 102.281 123.03 102.692V103.44L123.568 103.445C124.33 103.451 127.821 103.452 128.313 103.445L128.724 103.44V102.739C128.724 102.202 128.672 102.011 128.502 101.918C128.281 101.799 123.207 101.765 123.091 101.883ZM67.8887 103.582C66.8388 103.881 66.6099 103.993 65.8386 104.58C64.4181 105.663 63.7453 107.173 63.8393 109.066C64.0382 113.073 68.2963 115.458 71.9856 113.629C72.8545 113.199 74.2505 111.819 74.5593 111.085C75.1524 109.677 75.206 108.23 74.7134 106.917C74.3634 105.984 73.1258 104.61 72.1716 104.094C71.3274 103.639 69.9505 103.299 69.1385 103.345C68.8481 103.362 68.2857 103.468 67.8887 103.582ZM81.4016 103.453C79.0354 103.674 77.4425 104.714 76.551 106.621C76.1767 107.421 76.1505 107.569 76.1512 108.887C76.1517 110.148 76.1875 110.374 76.4923 111.034C77.164 112.489 78.6448 113.689 80.2628 114.091C81.8331 114.481 84.038 114.226 85.4768 113.487L86.0832 113.176L86.0813 112.313C86.0784 111.044 86.022 111.002 84.9747 111.491C82.4734 112.659 79.9427 112.182 78.7852 110.325C78.3551 109.634 78.2509 108.521 78.5437 107.744C78.8012 107.062 79.6732 106.211 80.4936 105.843C81.7099 105.296 83.5486 105.412 85.0444 106.128C85.473 106.334 85.8451 106.462 85.8712 106.413C85.8972 106.364 85.9253 105.878 85.9334 105.334C85.9468 104.45 85.9188 104.324 85.6678 104.145C84.9704 103.645 82.9121 103.311 81.4016 103.453ZM113.098 103.619C112.328 103.867 111.576 104.29 110.743 104.945C109.135 106.21 108.572 108.621 109.374 110.809C109.724 111.768 111.012 113.097 112.144 113.67C115.391 115.314 119.257 113.566 120.128 110.061C120.213 109.72 120.253 109.013 120.221 108.442C120.093 106.198 118.559 104.305 116.333 103.644C115.515 103.401 113.818 103.388 113.098 103.619ZM17.0618 103.929C17.025 103.967 16.9972 106.21 17.0002 108.914L17.0055 113.831L18.0794 113.794L19.1534 113.757L19.1824 110.003C19.2069 106.831 19.2407 106.23 19.4012 106.124C19.5055 106.055 20.018 106.004 20.5399 106.01C21.0619 106.016 22.1865 106.017 23.0389 106.012L24.589 106.003L24.5888 104.946L24.5886 103.888L20.8588 103.875C18.8073 103.867 17.0988 103.892 17.0618 103.929ZM26.5186 103.905C26.3959 103.958 26.3604 105.081 26.3604 108.897V113.821H27.4916H28.6226L29.9915 112.187C33.2909 108.248 34.1225 107.285 34.2238 107.285C34.2833 107.285 34.3319 108.755 34.3319 110.553V113.821H35.4074H36.4829V108.896V103.971L35.3952 103.93L34.3077 103.888L33.7187 104.539C33.3948 104.897 32.1373 106.379 30.9243 107.833C29.7112 109.286 28.672 110.446 28.6151 110.41C28.5581 110.375 28.5114 108.913 28.5114 107.163C28.5114 104.732 28.474 103.966 28.3533 103.922C28.1218 103.838 26.7034 103.825 26.5186 103.905ZM42.0819 103.924L40.5319 103.96L40.521 104.309C40.5151 104.5 40.4975 105.695 40.4821 106.964C40.457 109.027 40.4234 109.35 40.1637 110.019C39.8274 110.884 39.2496 111.609 38.8493 111.666C38.5765 111.706 38.5699 111.751 38.536 113.853L38.5013 116H39.5166C40.3973 116 40.5325 115.97 40.5371 115.776C40.5546 115.024 40.6401 114.083 40.6997 113.985C40.7383 113.922 42.5075 113.876 44.668 113.882L48.5667 113.893L48.6034 114.946L48.6402 116H49.6472H50.6544V113.829V111.659L50.2432 111.618L49.832 111.578L49.7687 107.733L49.7054 103.888H46.6687C44.9985 103.888 42.9345 103.904 42.0819 103.924ZM52.6096 103.986C52.5715 104.087 52.5573 106.326 52.5781 108.963L52.6157 113.757H53.6279H54.6402L54.6769 112.7C54.708 111.807 54.7473 111.641 54.9299 111.632C55.049 111.626 56.1712 111.607 57.4239 111.591C59.2338 111.567 59.8234 111.515 60.2955 111.336C61.4409 110.901 62.4936 109.653 62.7182 108.462C62.8721 107.647 62.5819 106.273 62.1009 105.539C61.6264 104.815 61.2602 104.501 60.4606 104.134C60.0185 103.93 59.494 103.895 56.3166 103.852C53.2531 103.811 52.6678 103.832 52.6096 103.986ZM87.0955 104.959V106.124L88.8986 106.16L90.7016 106.195L90.7352 110.008L90.7687 113.821H91.9056H93.0425V109.98V106.138L94.8456 106.103L96.6486 106.067L96.74 105.362C96.7902 104.974 96.8 104.499 96.7616 104.305L96.6918 103.952L94.1396 103.95C92.7359 103.948 90.5768 103.912 89.3414 103.87L87.0955 103.793V104.959ZM99.5588 103.952L98.0405 104.016L98.0128 108.63C97.9975 111.168 98.0134 113.377 98.0481 113.538C98.1082 113.818 98.1586 113.83 99.088 113.795L100.065 113.757V112.732V111.706L102.532 111.629C105.498 111.536 105.839 111.449 106.855 110.519C108.145 109.339 108.397 107.408 107.486 105.692C107.082 104.931 106.395 104.401 105.458 104.125C104.708 103.904 102.343 103.835 99.5588 103.952ZM121.639 108.892V113.831L122.806 113.794L123.973 113.757L125.848 111.522C128.349 108.54 129.56 107.238 129.733 107.347C129.833 107.409 129.863 108.376 129.837 110.618L129.798 113.801L130.495 113.844C130.878 113.867 131.374 113.866 131.596 113.841L132 113.795L131.994 108.874L131.988 103.952H130.875H129.762L129.021 104.697C128.614 105.107 128.025 105.756 127.712 106.139C125.838 108.433 124.005 110.48 123.89 110.408C123.8 110.352 123.778 109.297 123.822 107.139L123.887 103.952H122.763H121.639V108.892ZM70.2749 105.569C71.2104 105.85 71.8157 106.32 72.3145 107.151C72.6927 107.782 72.7339 107.947 72.7313 108.818C72.7277 109.97 72.4509 110.605 71.6483 111.301C70.5606 112.244 69.0662 112.424 67.7684 111.767C66.5736 111.162 65.9542 110.163 65.9479 108.831C65.9406 107.278 66.8737 106.033 68.4098 105.547C69.1221 105.321 69.4651 105.325 70.2749 105.569ZM116.201 105.813C118.318 106.899 118.773 109.498 117.142 111.179C116.105 112.247 114.499 112.522 113.199 111.854C110.229 110.329 110.817 106.197 114.11 105.45C114.608 105.337 115.615 105.511 116.201 105.813ZM59.7428 106.277C60.6255 106.564 60.9552 107.923 60.326 108.681C59.8649 109.236 59.3518 109.334 56.9009 109.335C54.7394 109.335 54.7328 109.334 54.6774 109.041C54.5955 108.607 54.6511 106.321 54.7472 106.163C54.8541 105.988 59.1553 106.086 59.7428 106.277ZM105.359 106.426C105.947 106.817 106.138 107.823 105.764 108.557C105.437 109.197 104.833 109.335 102.355 109.335C99.8352 109.335 100.033 109.451 100.063 107.99C100.102 106.074 100.082 106.152 100.539 106.107C100.766 106.085 101.865 106.096 102.981 106.131C104.652 106.184 105.074 106.236 105.359 106.426ZM47.7026 108.745C47.7316 110.503 47.7004 111.349 47.6024 111.469C47.4901 111.606 46.8358 111.642 44.5022 111.642C42.7061 111.642 41.5442 111.594 41.5442 111.52C41.5442 111.453 41.6858 111.186 41.8587 110.928C42.3247 110.232 42.4449 109.703 42.5553 107.861C42.6102 106.945 42.6614 106.18 42.669 106.161C42.6768 106.141 43.8029 106.141 45.1718 106.161L47.6607 106.195L47.7026 108.745Z" fill="#9A9DA0"/>
</svg>
